<?xml version="1.0" standalone="no"?>
 <!DOCTYPE svg PUBLIC "-//W3C//DTD SVG 1.1//EN" 
 "http://www.w3.org/Graphics/SVG/1.1/DTD/svg11.dtd"> 
<svg xmlns="http://www.w3.org/2000/svg" version="1.1" 
    width="29.7002cm" height="21.0007cm" viewBox="0 0 116930 82680 ">
<title>SVG Picture created as Step_Down_3_3V-B.Cu.svg date 2021/11/17 09:14:17 </title>
  <desc>Picture generated by PCBNEW </desc>
<g style="fill:#000000; fill-opacity:1;stroke:#000000; stroke-opacity:1;
stroke-linecap:round; stroke-linejoin:round; "
 transform="translate(0 0) scale(1 1)">
</g>
<g style="fill:#000000; fill-opacity:0.0; 
stroke:#000000; stroke-width:-0.000393701; stroke-opacity:1; 
stroke-linecap:round; stroke-linejoin:round;">
</g>
<g style="fill:#000000; fill-opacity:0.0; 
stroke:#000000; stroke-width:196.85; stroke-opacity:1; 
stroke-linecap:round; stroke-linejoin:round;">
<path d="M81862 45667
L81862 44879
L81674 44879
L81562 44917
L81487 44992
L81449 45067
L81412 45217
L81412 45329
L81449 45479
L81487 45554
L81562 45629
L81674 45667
L81862 45667
" />
<path d="M81074 44879
L81074 45517
L81037 45592
L80999 45629
L80924 45667
L80774 45667
L80699 45629
L80662 45592
L80624 45517
L80624 44879
" />
<path d="M80249 45667
L80249 44879
L80062 44879
L79949 44917
L79874 44992
L79837 45067
L79799 45217
L79799 45329
L79837 45479
L79874 45554
L79949 45629
L80062 45667
L80249 45667
" />
<path d="M79462 45254
L79199 45254
" />
<path d="M79087 45667
L79462 45667
L79462 44879
L79087 44879
" />
<path d="M78749 45667
L78749 44879
" />
<path d="M78299 45667
L78637 45217
" />
<path d="M78299 44879
L78749 45329
" />
<path d="M76987 44879
L77362 44879
L77400 45254
L77362 45217
L77287 45179
L77100 45179
L77025 45217
L76987 45254
L76950 45329
L76950 45517
L76987 45592
L77025 45629
L77100 45667
L77287 45667
L77362 45629
L77400 45592
" />
<path d="M76650 45442
L76275 45442
" />
<path d="M76725 45667
L76462 44879
L76200 45667
" />
<path d="M75937 45667
L75937 44879
" />
<path d="M75937 45254
L75487 45254
" />
<path d="M75487 45667
L75487 44879
" />
<path d="M75112 45254
L74850 45254
" />
<path d="M74737 45667
L75112 45667
L75112 44879
L74737 44879
" />
<path d="M74025 45667
L74400 45667
L74400 44879
" />
<path d="M81955 47007
L81843 47045
L81655 47045
L81580 47007
L81543 46970
L81505 46895
L81505 46820
L81543 46745
L81580 46707
L81655 46670
L81805 46632
L81880 46595
L81918 46557
L81955 46482
L81955 46407
L81918 46332
L81880 46295
L81805 46257
L81618 46257
L81505 46295
" />
<path d="M81280 46257
L80830 46257
" />
<path d="M81055 47045
L81055 46257
" />
<path d="M80568 46632
L80305 46632
" />
<path d="M80193 47045
L80568 47045
L80568 46257
L80193 46257
" />
<path d="M79856 47045
L79856 46257
L79556 46257
L79481 46295
L79443 46332
L79406 46407
L79406 46520
L79443 46595
L79481 46632
L79556 46670
L79856 46670
" />
<path d="M79068 47045
L79068 46257
L78881 46257
L78768 46295
L78693 46370
L78656 46445
L78618 46595
L78618 46707
L78656 46857
L78693 46932
L78768 47007
L78881 47045
L79068 47045
" />
<path d="M78131 46257
L77981 46257
L77906 46295
L77831 46370
L77793 46520
L77793 46782
L77831 46932
L77906 47007
L77981 47045
L78131 47045
L78206 47007
L78281 46932
L78318 46782
L78318 46520
L78281 46370
L78206 46295
L78131 46257
" />
<path d="M77531 46257
L77343 47045
L77193 46482
L77043 47045
L76856 46257
" />
<path d="M76556 47045
L76556 46257
L76106 47045
L76106 46257
" />
<path d="M74756 46257
L75131 46257
L75169 46632
L75131 46595
L75056 46557
L74869 46557
L74794 46595
L74756 46632
L74719 46707
L74719 46895
L74756 46970
L74794 47007
L74869 47045
L75056 47045
L75131 47007
L75169 46970
" />
<path d="M74494 46257
L74231 47045
L73969 46257
" />
</g>
<g style="fill:#000000; fill-opacity:1.0; 
stroke:#000000; stroke-width:0; stroke-opacity:1; 
stroke-linecap:round; stroke-linejoin:round;">
<circle cx="59400" cy="54550" r="314.961" /> 
</g>
<g style="fill:#000000; fill-opacity:1.0; 
stroke:#000000; stroke-width:39.3701; stroke-opacity:1; 
stroke-linecap:round; stroke-linejoin:round;">
</g>
<g style="fill:#000000; fill-opacity:1.0; 
stroke:#000000; stroke-width:0; stroke-opacity:1; 
stroke-linecap:round; stroke-linejoin:round;">
<circle cx="57431.5" cy="54550" r="314.961" /> 
</g>
<g style="fill:#000000; fill-opacity:1.0; 
stroke:#000000; stroke-width:39.3701; stroke-opacity:1; 
stroke-linecap:round; stroke-linejoin:round;">
</g>
<g style="fill:#000000; fill-opacity:1.0; 
stroke:#000000; stroke-width:0; stroke-opacity:1; 
stroke-linecap:round; stroke-linejoin:round;">
<circle cx="67400" cy="46831.5" r="393.701" /> 
</g>
<g style="fill:#000000; fill-opacity:1.0; 
stroke:#000000; stroke-width:39.3701; stroke-opacity:1; 
stroke-linecap:round; stroke-linejoin:round;">
</g>
<g style="fill:#000000; fill-opacity:1.0; 
stroke:#000000; stroke-width:0; stroke-opacity:1; 
stroke-linecap:round; stroke-linejoin:round;">
<circle cx="67400" cy="48800" r="393.701" /> 
</g>
<g style="fill:#000000; fill-opacity:1.0; 
stroke:#000000; stroke-width:39.3701; stroke-opacity:1; 
stroke-linecap:round; stroke-linejoin:round;">
</g>
<g style="fill:#000000; fill-opacity:1.0; 
stroke:#000000; stroke-width:0; stroke-opacity:1; 
stroke-linecap:round; stroke-linejoin:round;">
<circle cx="59400" cy="50150" r="314.961" /> 
</g>
<g style="fill:#000000; fill-opacity:1.0; 
stroke:#000000; stroke-width:39.3701; stroke-opacity:1; 
stroke-linecap:round; stroke-linejoin:round;">
</g>
<g style="fill:#000000; fill-opacity:1.0; 
stroke:#000000; stroke-width:0; stroke-opacity:1; 
stroke-linecap:round; stroke-linejoin:round;">
<circle cx="57431.5" cy="50150" r="314.961" /> 
</g>
<g style="fill:#000000; fill-opacity:1.0; 
stroke:#000000; stroke-width:39.3701; stroke-opacity:1; 
stroke-linecap:round; stroke-linejoin:round;">
</g>
<g style="fill:#000000; fill-opacity:1.0; 
stroke:#000000; stroke-width:0; stroke-opacity:1; 
stroke-linecap:round; stroke-linejoin:round;">
<circle cx="57431.5" cy="52350" r="314.961" /> 
</g>
<g style="fill:#000000; fill-opacity:1.0; 
stroke:#000000; stroke-width:39.3701; stroke-opacity:1; 
stroke-linecap:round; stroke-linejoin:round;">
</g>
<g style="fill:#000000; fill-opacity:1.0; 
stroke:#000000; stroke-width:0; stroke-opacity:1; 
stroke-linecap:round; stroke-linejoin:round;">
<circle cx="59400" cy="52350" r="314.961" /> 
</g>
<g style="fill:#000000; fill-opacity:1.0; 
stroke:#000000; stroke-width:39.3701; stroke-opacity:1; 
stroke-linecap:round; stroke-linejoin:round;">
</g>
<g style="fill:#000000; fill-opacity:1.0; 
stroke:#000000; stroke-width:0; stroke-opacity:1; 
stroke-linecap:round; stroke-linejoin:round;">
<circle cx="68800" cy="48968.5" r="314.961" /> 
</g>
<g style="fill:#000000; fill-opacity:1.0; 
stroke:#000000; stroke-width:39.3701; stroke-opacity:1; 
stroke-linecap:round; stroke-linejoin:round;">
</g>
<g style="fill:#000000; fill-opacity:1.0; 
stroke:#000000; stroke-width:0; stroke-opacity:1; 
stroke-linecap:round; stroke-linejoin:round;">
<circle cx="68800" cy="47000" r="314.961" /> 
</g>
<g style="fill:#000000; fill-opacity:1.0; 
stroke:#000000; stroke-width:39.3701; stroke-opacity:1; 
stroke-linecap:round; stroke-linejoin:round;">
</g>
<g style="fill:#000000; fill-opacity:1.0; 
stroke:#000000; stroke-width:0; stroke-opacity:1; 
stroke-linecap:round; stroke-linejoin:round;">
<circle cx="70600" cy="46200" r="393.701" /> 
</g>
<g style="fill:#000000; fill-opacity:1.0; 
stroke:#000000; stroke-width:39.3701; stroke-opacity:1; 
stroke-linecap:round; stroke-linejoin:round;">
</g>
<g style="fill:#000000; fill-opacity:1.0; 
stroke:#000000; stroke-width:0; stroke-opacity:1; 
stroke-linecap:round; stroke-linejoin:round;">
<circle cx="70600" cy="50137" r="393.701" /> 
</g>
<g style="fill:#000000; fill-opacity:1.0; 
stroke:#000000; stroke-width:39.3701; stroke-opacity:1; 
stroke-linecap:round; stroke-linejoin:round;">
</g>
<g style="fill:#000000; fill-opacity:1.0; 
stroke:#000000; stroke-width:629.921; stroke-opacity:1; 
stroke-linecap:round; stroke-linejoin:round;">
</g>
<g style="fill:#000000; fill-opacity:0.0; 
stroke:#000000; stroke-width:629.921; stroke-opacity:1; 
stroke-linecap:round; stroke-linejoin:round;">
<path d="M64957 55600
L64957 55600
" />
</g>
<g style="fill:#000000; fill-opacity:1.0; 
stroke:#000000; stroke-width:0; stroke-opacity:1; 
stroke-linecap:round; stroke-linejoin:round;">
<circle cx="74800" cy="55600" r="314.961" /> 
</g>
<g style="fill:#000000; fill-opacity:1.0; 
stroke:#000000; stroke-width:39.3701; stroke-opacity:1; 
stroke-linecap:round; stroke-linejoin:round;">
</g>
<g style="fill:#000000; fill-opacity:1.0; 
stroke:#000000; stroke-width:0; stroke-opacity:1; 
stroke-linecap:round; stroke-linejoin:round;">
<circle cx="74800" cy="52400" r="314.961" /> 
</g>
<g style="fill:#000000; fill-opacity:1.0; 
stroke:#000000; stroke-width:39.3701; stroke-opacity:1; 
stroke-linecap:round; stroke-linejoin:round;">
</g>
<g style="fill:#000000; fill-opacity:1.0; 
stroke:#000000; stroke-width:629.921; stroke-opacity:1; 
stroke-linecap:round; stroke-linejoin:round;">
</g>
<g style="fill:#000000; fill-opacity:0.0; 
stroke:#000000; stroke-width:629.921; stroke-opacity:1; 
stroke-linecap:round; stroke-linejoin:round;">
<path d="M64957 52400
L64957 52400
" />
</g>
<g style="fill:#000000; fill-opacity:1.0; 
stroke:#000000; stroke-width:0; stroke-opacity:1; 
stroke-linecap:round; stroke-linejoin:round;">
<circle cx="61600" cy="52663" r="393.701" /> 
</g>
<g style="fill:#000000; fill-opacity:1.0; 
stroke:#000000; stroke-width:39.3701; stroke-opacity:1; 
stroke-linecap:round; stroke-linejoin:round;">
</g>
<g style="fill:#000000; fill-opacity:1.0; 
stroke:#000000; stroke-width:0; stroke-opacity:1; 
stroke-linecap:round; stroke-linejoin:round;">
<circle cx="61600" cy="56600" r="393.701" /> 
</g>
<g style="fill:#000000; fill-opacity:1.0; 
stroke:#000000; stroke-width:39.3701; stroke-opacity:1; 
stroke-linecap:round; stroke-linejoin:round;">
</g>
<g style="fill:#000000; fill-opacity:1.0; 
stroke:#000000; stroke-width:0; stroke-opacity:1; 
stroke-linecap:round; stroke-linejoin:round;">
<polyline style="fill-rule:evenodd;"
points="63954,57057
63245,57057
63245,55679
63954,55679
63954,57057
" /> 
<polyline style="fill-rule:evenodd;"
points="63954,55088
63245,55088
63245,53711
63954,53711
63954,55088
" /> 
<polyline style="fill-rule:evenodd;"
points="59065,56065
59734,56065
59734,56734
59065,56734
59065,56065
" /> 
</g>
<g style="fill:#000000; fill-opacity:1.0; 
stroke:#000000; stroke-width:669.291; stroke-opacity:1; 
stroke-linecap:round; stroke-linejoin:round;">
</g>
<g style="fill:#000000; fill-opacity:0.0; 
stroke:#000000; stroke-width:669.291; stroke-opacity:1; 
stroke-linecap:round; stroke-linejoin:round;">
<path d="M58400 56400
L58400 56400
" />
</g>
<g style="fill:#000000; fill-opacity:1.0; 
stroke:#000000; stroke-width:0; stroke-opacity:1; 
stroke-linecap:round; stroke-linejoin:round;">
<circle cx="61800" cy="49000" r="393.701" /> 
</g>
<g style="fill:#000000; fill-opacity:1.0; 
stroke:#000000; stroke-width:39.3701; stroke-opacity:1; 
stroke-linecap:round; stroke-linejoin:round;">
</g>
<g style="fill:#000000; fill-opacity:1.0; 
stroke:#000000; stroke-width:0; stroke-opacity:1; 
stroke-linecap:round; stroke-linejoin:round;">
<circle cx="61800" cy="47031.5" r="393.701" /> 
</g>
<g style="fill:#000000; fill-opacity:1.0; 
stroke:#000000; stroke-width:39.3701; stroke-opacity:1; 
stroke-linecap:round; stroke-linejoin:round;">
</g>
<g style="fill:#000000; fill-opacity:1.0; 
stroke:#000000; stroke-width:0; stroke-opacity:1; 
stroke-linecap:round; stroke-linejoin:round;">
<circle cx="60400" cy="45600" r="314.961" /> 
</g>
<g style="fill:#000000; fill-opacity:1.0; 
stroke:#000000; stroke-width:39.3701; stroke-opacity:1; 
stroke-linecap:round; stroke-linejoin:round;">
</g>
<g style="fill:#000000; fill-opacity:1.0; 
stroke:#000000; stroke-width:629.921; stroke-opacity:1; 
stroke-linecap:round; stroke-linejoin:round;">
</g>
<g style="fill:#000000; fill-opacity:0.0; 
stroke:#000000; stroke-width:629.921; stroke-opacity:1; 
stroke-linecap:round; stroke-linejoin:round;">
<path d="M60400 48600
L60400 48600
" />
</g>
<g style="fill:#000000; fill-opacity:0.0; 
stroke:#000000; stroke-width:0; stroke-opacity:1; 
stroke-linecap:round; stroke-linejoin:round;">
</g>
<g style="fill:#000000; fill-opacity:1.0; 
stroke:#000000; stroke-width:0; stroke-opacity:1; 
stroke-linecap:round; stroke-linejoin:round;">
<polyline style="fill-rule:evenodd;"
points="60631,51668
60631,51431
61242,51431
61242,51668
60631,51668
" /> 
<polyline style="fill-rule:evenodd;"
points="60631,51168
60631,50931
61242,50931
61242,51168
60631,51168
" /> 
<polyline style="fill-rule:evenodd;"
points="60631,50668
60631,50431
61242,50431
61242,50668
60631,50668
" /> 
<polyline style="fill-rule:evenodd;"
points="60631,50168
60631,49931
61242,49931
61242,50168
60631,50168
" /> 
<polyline style="fill-rule:evenodd;"
points="62757,50168
62757,49931
63368,49931
63368,50168
62757,50168
" /> 
<polyline style="fill-rule:evenodd;"
points="62757,50668
62757,50431
63368,50431
63368,50668
62757,50668
" /> 
<polyline style="fill-rule:evenodd;"
points="62757,51168
62757,50931
63368,50931
63368,51168
62757,51168
" /> 
<polyline style="fill-rule:evenodd;"
points="62757,51668
62757,51431
63368,51431
63368,51668
62757,51668
" /> 
</g>
<g style="fill:#000000; fill-opacity:1.0; 
stroke:#000000; stroke-width:669.291; stroke-opacity:1; 
stroke-linecap:round; stroke-linejoin:round;">
</g>
<g style="fill:#000000; fill-opacity:0.0; 
stroke:#000000; stroke-width:669.291; stroke-opacity:1; 
stroke-linecap:round; stroke-linejoin:round;">
<path d="M73000 50000
L73000 50000
" />
</g>
<g style="fill:#000000; fill-opacity:0.0; 
stroke:#000000; stroke-width:0; stroke-opacity:1; 
stroke-linecap:round; stroke-linejoin:round;">
</g>
<g style="fill:#000000; fill-opacity:1.0; 
stroke:#000000; stroke-width:0; stroke-opacity:1; 
stroke-linecap:round; stroke-linejoin:round;">
<polyline style="fill-rule:evenodd;"
points="73665,49665
74334,49665
74334,50334
73665,50334
73665,49665
" /> 
<circle cx="66000" cy="49000" r="314.961" /> 
</g>
<g style="fill:#000000; fill-opacity:1.0; 
stroke:#000000; stroke-width:39.3701; stroke-opacity:1; 
stroke-linecap:round; stroke-linejoin:round;">
</g>
<g style="fill:#000000; fill-opacity:1.0; 
stroke:#000000; stroke-width:629.921; stroke-opacity:1; 
stroke-linecap:round; stroke-linejoin:round;">
</g>
<g style="fill:#000000; fill-opacity:0.0; 
stroke:#000000; stroke-width:629.921; stroke-opacity:1; 
stroke-linecap:round; stroke-linejoin:round;">
<path d="M66000 46000
L66000 46000
" />
<path d="M59000 45600
L59000 45600
" />
</g>
<g style="fill:#000000; fill-opacity:1.0; 
stroke:#000000; stroke-width:0; stroke-opacity:1; 
stroke-linecap:round; stroke-linejoin:round;">
<circle cx="59000" cy="48600" r="314.961" /> 
</g>
<g style="fill:#000000; fill-opacity:1.0; 
stroke:#000000; stroke-width:39.3701; stroke-opacity:1; 
stroke-linecap:round; stroke-linejoin:round;">
</g>
<g style="fill:#000000; fill-opacity:1.0; 
stroke:#000000; stroke-width:0; stroke-opacity:1; 
stroke-linecap:round; stroke-linejoin:round;">
<circle cx="64600" cy="49000" r="314.961" /> 
</g>
<g style="fill:#000000; fill-opacity:1.0; 
stroke:#000000; stroke-width:39.3701; stroke-opacity:1; 
stroke-linecap:round; stroke-linejoin:round;">
</g>
<g style="fill:#000000; fill-opacity:1.0; 
stroke:#000000; stroke-width:629.921; stroke-opacity:1; 
stroke-linecap:round; stroke-linejoin:round;">
</g>
<g style="fill:#000000; fill-opacity:0.0; 
stroke:#000000; stroke-width:629.921; stroke-opacity:1; 
stroke-linecap:round; stroke-linejoin:round;">
<path d="M64600 46000
L64600 46000
" />
</g>
<g style="fill:#000000; fill-opacity:1.0; 
stroke:#000000; stroke-width:0; stroke-opacity:1; 
stroke-linecap:round; stroke-linejoin:round;">
<circle cx="81600" cy="50800" r="708.661" /> 
</g>
<g style="fill:#000000; fill-opacity:1.0; 
stroke:#000000; stroke-width:39.3701; stroke-opacity:1; 
stroke-linecap:round; stroke-linejoin:round;">
</g>
<g style="fill:#000000; fill-opacity:1.0; 
stroke:#000000; stroke-width:0; stroke-opacity:1; 
stroke-linecap:round; stroke-linejoin:round;">
<circle cx="76285" cy="50800" r="708.661" /> 
</g>
<g style="fill:#000000; fill-opacity:1.0; 
stroke:#000000; stroke-width:39.3701; stroke-opacity:1; 
stroke-linecap:round; stroke-linejoin:round;">
</g>
<g style="fill:#000000; fill-opacity:1.0; 
stroke:#000000; stroke-width:629.921; stroke-opacity:1; 
stroke-linecap:round; stroke-linejoin:round;">
</g>
<g style="fill:#000000; fill-opacity:0.0; 
stroke:#000000; stroke-width:629.921; stroke-opacity:1; 
stroke-linecap:round; stroke-linejoin:round;">
<path d="M63200 49000
L63200 49000
" />
</g>
<g style="fill:#000000; fill-opacity:1.0; 
stroke:#000000; stroke-width:0; stroke-opacity:1; 
stroke-linecap:round; stroke-linejoin:round;">
<circle cx="63200" cy="46000" r="314.961" /> 
</g>
<g style="fill:#000000; fill-opacity:1.0; 
stroke:#000000; stroke-width:39.3701; stroke-opacity:1; 
stroke-linecap:round; stroke-linejoin:round;">
</g>
<g style="fill:#000000; fill-opacity:1.0; 
stroke:#000000; stroke-width:393.701; stroke-opacity:1; 
stroke-linecap:round; stroke-linejoin:round;">
</g>
<g style="fill:#000000; fill-opacity:0.0; 
stroke:#000000; stroke-width:393.701; stroke-opacity:1; 
stroke-linecap:round; stroke-linejoin:round;">
<path d="M57431 55431
L58400 56400
" />
<path d="M57431 54550
L57431 55431
" />
<path d="M57431 54550
L57431 52350
" />
<path d="M57431 52350
L57431 50150
" />
<path d="M57431 47168
L57431 50150
" />
<path d="M59000 45600
L57431 47168
" />
<path d="M59000 45600
L59800 44800
" />
<path d="M59800 44800
L60800 44800
" />
<path d="M61800 45800
L61800 47031
" />
<path d="M60800 44800
L61800 45800
" />
<path d="M64600 46000
L66000 46000
" />
<path d="M63568 47031
L64600 46000
" />
<path d="M61800 47031
L63568 47031
" />
<path d="M67800 46000
L66000 46000
" />
<path d="M68800 47000
L67800 46000
" />
<path d="M69400 47000
L68800 47000
" />
<path d="M73000 50000
L72400 50000
" />
<path d="M72400 50000
L69400 47000
" />
<path d="M59400 56400
L59400 54550
" />
<path d="M59400 54550
L59400 52350
" />
<path d="M58022 48772
L59085 49835
" />
<path d="M60400 45600
L58022 47977
" />
<path d="M59085 49835
L59400 50150
" />
<path d="M58022 47977
L58022 48772
" />
</g>
<g style="fill:#000000; fill-opacity:0.0; 
stroke:#000000; stroke-width:196.85; stroke-opacity:1; 
stroke-linecap:round; stroke-linejoin:round;">
<path d="M59400 51000
L59450 51050
" />
<path d="M59650 51050
L59400 50800
" />
<path d="M59800 51050
L59650 51050
" />
</g>
<g style="fill:#000000; fill-opacity:0.0; 
stroke:#000000; stroke-width:393.701; stroke-opacity:1; 
stroke-linecap:round; stroke-linejoin:round;">
<path d="M59400 50800
L59400 50150
" />
<path d="M59400 51000
L59400 50800
" />
</g>
<g style="fill:#000000; fill-opacity:0.0; 
stroke:#000000; stroke-width:196.85; stroke-opacity:1; 
stroke-linecap:round; stroke-linejoin:round;">
<path d="M59450 51050
L59800 51050
" />
<path d="M59800 51050
L60937 51050
" />
<path d="M59550 51050
L59400 51200
" />
<path d="M59800 51050
L59550 51050
" />
</g>
<g style="fill:#000000; fill-opacity:0.0; 
stroke:#000000; stroke-width:393.701; stroke-opacity:1; 
stroke-linecap:round; stroke-linejoin:round;">
<path d="M59400 51200
L59400 51000
" />
<path d="M59400 52350
L59400 51400
" />
<path d="M59400 51400
L59400 51200
" />
</g>
<g style="fill:#000000; fill-opacity:0.0; 
stroke:#000000; stroke-width:196.85; stroke-opacity:1; 
stroke-linecap:round; stroke-linejoin:round;">
<path d="M59500 51200
L59650 51050
" />
<path d="M59400 51200
L59500 51200
" />
<path d="M60937 52000
L61600 52662
" />
<path d="M60937 51550
L60937 52000
" />
</g>
<g style="fill:#000000; fill-opacity:0.0; 
stroke:#000000; stroke-width:393.701; stroke-opacity:1; 
stroke-linecap:round; stroke-linejoin:round;">
<path d="M63368 56600
L63600 56368
" />
<path d="M76031 56368
L63600 56368
" />
<path d="M81600 50800
L76031 56368
" />
</g>
<g style="fill:#000000; fill-opacity:0.0; 
stroke:#000000; stroke-width:196.85; stroke-opacity:1; 
stroke-linecap:round; stroke-linejoin:round;">
<path d="M63062 51864
L62600 52327
" />
<path d="M63062 51550
L63062 51864
" />
<path d="M62600 52327
L62600 56200
" />
</g>
<g style="fill:#000000; fill-opacity:0.0; 
stroke:#000000; stroke-width:393.701; stroke-opacity:1; 
stroke-linecap:round; stroke-linejoin:round;">
<path d="M61600 56600
L62200 56600
" />
<path d="M63000 56600
L63368 56600
" />
</g>
<g style="fill:#000000; fill-opacity:0.0; 
stroke:#000000; stroke-width:196.85; stroke-opacity:1; 
stroke-linecap:round; stroke-linejoin:round;">
<path d="M62800 56600
L62600 56400
" />
<path d="M62600 56400
L62600 56600
" />
<path d="M62600 56200
L62600 56400
" />
</g>
<g style="fill:#000000; fill-opacity:0.0; 
stroke:#000000; stroke-width:393.701; stroke-opacity:1; 
stroke-linecap:round; stroke-linejoin:round;">
<path d="M62600 56600
L62800 56600
" />
<path d="M62800 56600
L63000 56600
" />
</g>
<g style="fill:#000000; fill-opacity:0.0; 
stroke:#000000; stroke-width:196.85; stroke-opacity:1; 
stroke-linecap:round; stroke-linejoin:round;">
<path d="M62400 56600
L62600 56400
" />
</g>
<g style="fill:#000000; fill-opacity:0.0; 
stroke:#000000; stroke-width:393.701; stroke-opacity:1; 
stroke-linecap:round; stroke-linejoin:round;">
<path d="M62200 56600
L62400 56600
" />
<path d="M62400 56600
L62600 56600
" />
</g>
<g style="fill:#000000; fill-opacity:0.0; 
stroke:#000000; stroke-width:196.85; stroke-opacity:1; 
stroke-linecap:round; stroke-linejoin:round;">
<path d="M61800 49000
L61800 49187
" />
<path d="M61800 49187
L60937 50050
" />
</g>
<g style="fill:#000000; fill-opacity:0.0; 
stroke:#000000; stroke-width:393.701; stroke-opacity:1; 
stroke-linecap:round; stroke-linejoin:round;">
<path d="M66768 46831
L67400 46831
" />
<path d="M64600 49000
L66768 46831
" />
<path d="M67568 48968
L67400 48800
" />
<path d="M68800 48968
L67568 48968
" />
</g>
<g style="fill:#000000; fill-opacity:0.0; 
stroke:#000000; stroke-width:196.85; stroke-opacity:1; 
stroke-linecap:round; stroke-linejoin:round;">
<path d="M65650 50550
L63062 50550
" />
<path d="M67400 48800
L65650 50550
" />
</g>
<g style="fill:#000000; fill-opacity:0.0; 
stroke:#000000; stroke-width:393.701; stroke-opacity:1; 
stroke-linecap:round; stroke-linejoin:round;">
<path d="M74800 52285
L76285 50800
" />
<path d="M74800 52400
L74800 52285
" />
<path d="M74800 55600
L74800 52400
" />
<path d="M74000 50000
L75485 50000
" />
<path d="M75485 50000
L76285 50800
" />
<path d="M70206 45806
L70600 46200
" />
<path d="M69691 45291
L70206 45806
" />
<path d="M63908 45291
L69691 45291
" />
<path d="M63200 46000
L63908 45291
" />
<path d="M74000 49600
L74000 50000
" />
<path d="M70600 46200
L74000 49600
" />
<path d="M64800 55600
L63600 54400
" />
<path d="M64957 55600
L64800 55600
" />
<path d="M63600 53757
L64957 52400
" />
<path d="M63600 54400
L63600 53757
" />
<path d="M68337 52400
L64957 52400
" />
<path d="M70600 50137
L68337 52400
" />
</g>
<g style="fill:#000000; fill-opacity:0.0; 
stroke:#000000; stroke-width:196.85; stroke-opacity:1; 
stroke-linecap:round; stroke-linejoin:round;">
<path d="M63607 51050
L64957 52400
" />
<path d="M63062 51050
L63607 51050
" />
<path d="M60400 48600
L60400 49045
" />
<path d="M60400 49045
L60250 49195
" />
<path d="M60937 50550
L60435 50550
" />
<path d="M60435 50550
L60250 50364
" />
<path d="M60250 49195
L60250 50364
" />
</g>
<g style="fill:#000000; fill-opacity:0.0; 
stroke:#000000; stroke-width:393.701; stroke-opacity:1; 
stroke-linecap:round; stroke-linejoin:round;">
<path d="M59000 48600
L60400 48600
" />
<path d="M65291 49708
L66000 49000
" />
<path d="M63908 49708
L65291 49708
" />
</g>
<g style="fill:#000000; fill-opacity:0.0; 
stroke:#000000; stroke-width:196.85; stroke-opacity:1; 
stroke-linecap:round; stroke-linejoin:round;">
<path d="M63906 49708
L63908 49708
" />
<path d="M63062 50050
L63564 50050
" />
<path d="M63600 49400
L63600 50014
" />
<path d="M63600 50014
L63906 49708
" />
<path d="M63564 50050
L63600 50014
" />
</g>
<g style="fill:#000000; fill-opacity:0.0; 
stroke:#000000; stroke-width:393.701; stroke-opacity:1; 
stroke-linecap:round; stroke-linejoin:round;">
<path d="M63200 49000
L63600 49400
" />
<path d="M63600 49400
L63908 49708
" />
</g>
<g style="fill:#000000; fill-opacity:1.0; 
stroke:#000000; stroke-width:196.85; stroke-opacity:1; 
stroke-linecap:round; stroke-linejoin:round;">
<polyline style="fill-rule:evenodd;"
points="63411,44794
63373,44852
63027,45197
62742,45315
62515,45542
62392,45839
62392,46160
62515,46457
62742,46684
63039,46807
63360,46807
63657,46684
63884,46457
64002,46172
64016,46157
64077,46321
64240,46497
64458,46596
64502,46605
64598,46538
64598,46001
64601,46001
64601,46538
64697,46605
64741,46596
64959,46497
65122,46321
65205,46097
65394,46097
65477,46321
65640,46497
65858,46596
65902,46605
65998,46538
65998,46001
65461,46001
65394,46097
65205,46097
65138,46001
64601,46001
64598,46001
64590,46001
64590,45998
64598,45998
64598,45990
64601,45990
64601,45998
65138,45998
65151,45980
65448,45980
65461,45998
65998,45998
65998,45990
66001,45990
66001,45998
66538,45998
66551,45980
67140,45980
66898,46080
66836,46142
66768,46129
66700,46142
66700,46142
66579,46166
66605,46097
66538,46001
66001,46001
66001,46538
66051,46573
64427,48197
64142,48315
63915,48542
63896,48589
63781,48418
63514,48239
63279,48192
63120,48192
62885,48239
62618,48418
62556,48510
62550,48498
62301,48249
61976,48114
61623,48114
61298,48249
61177,48370
61160,48285
60981,48018
60714,47839
60479,47792
60320,47792
60085,47839
59978,47911
59445,47911
59175,47799
59495,47478
61354,47478
61386,47603
61636,47718
61911,47728
62170,47632
62213,47603
62245,47478
61800,47033
61354,47478
59495,47478
59830,47143
61103,47143
61199,47401
61228,47445
61352,47476
61797,47031
61802,47031
62247,47476
62371,47445
62486,47194
62496,46919
62400,46661
62371,46617
62247,46586
61802,47031
61797,47031
61352,46586
61228,46617
61113,46868
61103,47143
59830,47143
60390,46584
61354,46584
61800,47029
62245,46584
62213,46459
61963,46344
61688,46334
61429,46430
61386,46459
61354,46584
60390,46584
60572,46402
60857,46284
61084,46057
61207,45760
61207,45439
61084,45142
60857,44915
60560,44792
60239,44792
59942,44915
59715,45142
59597,45427
59583,45442
59522,45278
59359,45102
59141,45003
59097,44994
59001,45061
59001,45598
59009,45598
59009,45601
59001,45601
59001,45609
58998,45609
58998,45601
58461,45601
58394,45697
58477,45921
58640,46097
58838,46187
57582,47442
57525,47481
57373,47709
57333,47910
57333,47910
57319,47977
57333,48045
57333,48704
57319,48772
57373,49040
57486,49211
57486,49211
57525,49268
57582,49307
58597,50322
58711,50595
58711,51467
58711,51467
58711,51904
58592,52189
58592,52510
58711,52795
58711,54104
58592,54389
58592,54710
58711,54995
58711,55710
58710,55710
58634,55824
58546,55784
58500,55774
58401,55841
58401,56398
58409,56398
58409,56401
58401,56401
58401,56409
58398,56409
58398,56401
57841,56401
57774,56500
57861,56732
57996,56878
57121,56878
57121,56299
57774,56299
57841,56398
58398,56398
58398,55841
58299,55774
58253,55784
58029,55886
57861,56067
57774,56299
57121,56299
57121,55082
57287,55158
57530,55167
57759,55082
57797,55056
57819,54940
57431,54552
57425,54557
57423,54555
57429,54550
57433,54550
57822,54938
57938,54916
58039,54694
58048,54450
57963,54221
57938,54183
57822,54161
57433,54550
57429,54550
57423,54544
57425,54542
57431,54547
57819,54159
57797,54043
57575,53941
57332,53932
57121,54010
57121,52882
57287,52958
57530,52967
57759,52882
57797,52856
57819,52740
57431,52352
57425,52357
57423,52355
57429,52350
57433,52350
57822,52738
57938,52716
58039,52494
58048,52250
57963,52021
57938,51983
57822,51961
57433,52350
57429,52350
57423,52344
57425,52342
57431,52347
57819,51959
57797,51843
57575,51741
57332,51732
57121,51810
57121,50682
57287,50758
57530,50767
57759,50682
57797,50656
57819,50540
57431,50152
57425,50157
57423,50155
57429,50150
57433,50150
57822,50538
57938,50516
58039,50294
58048,50050
57963,49821
57938,49783
57822,49761
57433,50150
57429,50150
57423,50144
57425,50142
57431,50147
57819,49759
57797,49643
57575,49541
57332,49532
57121,49610
57121,45502
58394,45502
58461,45598
58998,45598
58998,45061
58902,44994
58858,45003
58640,45102
58477,45278
58394,45502
57121,45502
57121,44721
63521,44721
63411,44794
" /> 
<polyline style="fill-rule:evenodd;"
points="69714,46288
69714,46376
69849,46701
70098,46950
70423,47085
70511,47085
72823,49397
72629,49486
72461,49667
72374,49899
72441,49998
72998,49998
72998,49990
73001,49990
73001,49998
73009,49998
73009,50001
73001,50001
73001,50558
73100,50625
73146,50615
73234,50575
73310,50689
73473,50798
73665,50836
74334,50836
74526,50798
74689,50689
74689,50688
75084,50688
75084,51026
74431,51678
74342,51715
74115,51942
73992,52239
73992,52560
74111,52845
74111,55154
73992,55439
73992,55679
65764,55679
65780,55600
65717,55285
65539,55018
65272,54839
65036,54792
64967,54792
64456,54281
64456,53875
65146,53185
65272,53160
65379,53088
68269,53088
68337,53102
68404,53088
68404,53088
68605,53049
68833,52896
68872,52839
70688,51022
70776,51022
71101,50887
71350,50638
71485,50313
71485,50100
72374,50100
72461,50332
72629,50513
72853,50615
72899,50625
72998,50558
72998,50001
72441,50001
72374,50100
71485,50100
71485,49960
71350,49635
71101,49386
70776,49251
70423,49251
70098,49386
69849,49635
69714,49960
69714,50048
68051,51711
65379,51711
65272,51639
65036,51592
64985,51592
64533,51140
65591,51140
65650,51152
65708,51140
65708,51140
65880,51106
66075,50975
66108,50926
67349,49685
67576,49685
67644,49657
68354,49657
68639,49775
68960,49775
69257,49652
69484,49425
69607,49129
69607,48807
69484,48511
69257,48284
68960,48161
68639,48161
68354,48279
68132,48279
67901,48049
67576,47914
67223,47914
66898,48049
66649,48298
66587,48446
66457,48315
66316,48257
66964,47609
67223,47717
67576,47717
67901,47582
68093,47390
68411,47390
68433,47506
68655,47608
68899,47617
69128,47532
69166,47506
69188,47390
68800,47002
68411,47390
68093,47390
68150,47333
68213,47182
68267,47328
68293,47366
68409,47388
68797,47000
68802,47000
69190,47388
69306,47366
69408,47144
69417,46900
69332,46671
69306,46633
69190,46611
68802,47000
68797,47000
68409,46611
68293,46633
68284,46652
68266,46609
68411,46609
68800,46997
69188,46609
69166,46493
68944,46391
68700,46382
68471,46467
68433,46493
68411,46609
68266,46609
68150,46329
67901,46080
67659,45980
69405,45980
69714,46288
" /> 
</g> 
</svg>
