G04 #@! TF.GenerationSoftware,KiCad,Pcbnew,(5.0.0)*
G04 #@! TF.CreationDate,2021-11-17T09:11:59+01:00*
G04 #@! TF.ProjectId,Step_Down_3_3V,537465705F446F776E5F335F33562E6B,rev?*
G04 #@! TF.SameCoordinates,Original*
G04 #@! TF.FileFunction,Copper,L2,Bot,Signal*
G04 #@! TF.FilePolarity,Positive*
%FSLAX46Y46*%
G04 Gerber Fmt 4.6, Leading zero omitted, Abs format (unit mm)*
G04 Created by KiCad (PCBNEW (5.0.0)) date 11/17/21 09:11:59*
%MOMM*%
%LPD*%
G01*
G04 APERTURE LIST*
G04 #@! TA.AperFunction,NonConductor*
%ADD10C,0.500000*%
G04 #@! TD*
G04 #@! TA.AperFunction,ComponentPad*
%ADD11C,1.600000*%
G04 #@! TD*
G04 #@! TA.AperFunction,ComponentPad*
%ADD12C,2.000000*%
G04 #@! TD*
G04 #@! TA.AperFunction,ComponentPad*
%ADD13O,1.600000X1.600000*%
G04 #@! TD*
G04 #@! TA.AperFunction,SMDPad,CuDef*
%ADD14R,1.800000X3.500000*%
G04 #@! TD*
G04 #@! TA.AperFunction,ComponentPad*
%ADD15R,1.700000X1.700000*%
G04 #@! TD*
G04 #@! TA.AperFunction,ComponentPad*
%ADD16O,1.700000X1.700000*%
G04 #@! TD*
G04 #@! TA.AperFunction,SMDPad,CuDef*
%ADD17R,1.550000X0.600000*%
G04 #@! TD*
G04 #@! TA.AperFunction,ComponentPad*
%ADD18C,3.600000*%
G04 #@! TD*
G04 #@! TA.AperFunction,Conductor*
%ADD19C,1.000000*%
G04 #@! TD*
G04 #@! TA.AperFunction,Conductor*
%ADD20C,0.500000*%
G04 #@! TD*
G04 APERTURE END LIST*
D10*
X207929523Y-115994761D02*
X207929523Y-113994761D01*
X207453333Y-113994761D01*
X207167619Y-114090000D01*
X206977142Y-114280476D01*
X206881904Y-114470952D01*
X206786666Y-114851904D01*
X206786666Y-115137619D01*
X206881904Y-115518571D01*
X206977142Y-115709047D01*
X207167619Y-115899523D01*
X207453333Y-115994761D01*
X207929523Y-115994761D01*
X205929523Y-113994761D02*
X205929523Y-115613809D01*
X205834285Y-115804285D01*
X205739047Y-115899523D01*
X205548571Y-115994761D01*
X205167619Y-115994761D01*
X204977142Y-115899523D01*
X204881904Y-115804285D01*
X204786666Y-115613809D01*
X204786666Y-113994761D01*
X203834285Y-115994761D02*
X203834285Y-113994761D01*
X203358095Y-113994761D01*
X203072380Y-114090000D01*
X202881904Y-114280476D01*
X202786666Y-114470952D01*
X202691428Y-114851904D01*
X202691428Y-115137619D01*
X202786666Y-115518571D01*
X202881904Y-115709047D01*
X203072380Y-115899523D01*
X203358095Y-115994761D01*
X203834285Y-115994761D01*
X201834285Y-114947142D02*
X201167619Y-114947142D01*
X200881904Y-115994761D02*
X201834285Y-115994761D01*
X201834285Y-113994761D01*
X200881904Y-113994761D01*
X200024761Y-115994761D02*
X200024761Y-113994761D01*
X198881904Y-115994761D02*
X199739047Y-114851904D01*
X198881904Y-113994761D02*
X200024761Y-115137619D01*
X195548571Y-113994761D02*
X196500952Y-113994761D01*
X196596190Y-114947142D01*
X196500952Y-114851904D01*
X196310476Y-114756666D01*
X195834285Y-114756666D01*
X195643809Y-114851904D01*
X195548571Y-114947142D01*
X195453333Y-115137619D01*
X195453333Y-115613809D01*
X195548571Y-115804285D01*
X195643809Y-115899523D01*
X195834285Y-115994761D01*
X196310476Y-115994761D01*
X196500952Y-115899523D01*
X196596190Y-115804285D01*
X194691428Y-115423333D02*
X193739047Y-115423333D01*
X194881904Y-115994761D02*
X194215238Y-113994761D01*
X193548571Y-115994761D01*
X192881904Y-115994761D02*
X192881904Y-113994761D01*
X192881904Y-114947142D02*
X191739047Y-114947142D01*
X191739047Y-115994761D02*
X191739047Y-113994761D01*
X190786666Y-114947142D02*
X190120000Y-114947142D01*
X189834285Y-115994761D02*
X190786666Y-115994761D01*
X190786666Y-113994761D01*
X189834285Y-113994761D01*
X188024761Y-115994761D02*
X188977142Y-115994761D01*
X188977142Y-113994761D01*
X208167619Y-119399523D02*
X207881904Y-119494761D01*
X207405714Y-119494761D01*
X207215238Y-119399523D01*
X207120000Y-119304285D01*
X207024761Y-119113809D01*
X207024761Y-118923333D01*
X207120000Y-118732857D01*
X207215238Y-118637619D01*
X207405714Y-118542380D01*
X207786666Y-118447142D01*
X207977142Y-118351904D01*
X208072380Y-118256666D01*
X208167619Y-118066190D01*
X208167619Y-117875714D01*
X208072380Y-117685238D01*
X207977142Y-117590000D01*
X207786666Y-117494761D01*
X207310476Y-117494761D01*
X207024761Y-117590000D01*
X206453333Y-117494761D02*
X205310476Y-117494761D01*
X205881904Y-119494761D02*
X205881904Y-117494761D01*
X204643809Y-118447142D02*
X203977142Y-118447142D01*
X203691428Y-119494761D02*
X204643809Y-119494761D01*
X204643809Y-117494761D01*
X203691428Y-117494761D01*
X202834285Y-119494761D02*
X202834285Y-117494761D01*
X202072380Y-117494761D01*
X201881904Y-117590000D01*
X201786666Y-117685238D01*
X201691428Y-117875714D01*
X201691428Y-118161428D01*
X201786666Y-118351904D01*
X201881904Y-118447142D01*
X202072380Y-118542380D01*
X202834285Y-118542380D01*
X200834285Y-119494761D02*
X200834285Y-117494761D01*
X200358095Y-117494761D01*
X200072380Y-117590000D01*
X199881904Y-117780476D01*
X199786666Y-117970952D01*
X199691428Y-118351904D01*
X199691428Y-118637619D01*
X199786666Y-119018571D01*
X199881904Y-119209047D01*
X200072380Y-119399523D01*
X200358095Y-119494761D01*
X200834285Y-119494761D01*
X198453333Y-117494761D02*
X198072380Y-117494761D01*
X197881904Y-117590000D01*
X197691428Y-117780476D01*
X197596190Y-118161428D01*
X197596190Y-118828095D01*
X197691428Y-119209047D01*
X197881904Y-119399523D01*
X198072380Y-119494761D01*
X198453333Y-119494761D01*
X198643809Y-119399523D01*
X198834285Y-119209047D01*
X198929523Y-118828095D01*
X198929523Y-118161428D01*
X198834285Y-117780476D01*
X198643809Y-117590000D01*
X198453333Y-117494761D01*
X196929523Y-117494761D02*
X196453333Y-119494761D01*
X196072380Y-118066190D01*
X195691428Y-119494761D01*
X195215238Y-117494761D01*
X194453333Y-119494761D02*
X194453333Y-117494761D01*
X193310476Y-119494761D01*
X193310476Y-117494761D01*
X189881904Y-117494761D02*
X190834285Y-117494761D01*
X190929523Y-118447142D01*
X190834285Y-118351904D01*
X190643809Y-118256666D01*
X190167619Y-118256666D01*
X189977142Y-118351904D01*
X189881904Y-118447142D01*
X189786666Y-118637619D01*
X189786666Y-119113809D01*
X189881904Y-119304285D01*
X189977142Y-119399523D01*
X190167619Y-119494761D01*
X190643809Y-119494761D01*
X190834285Y-119399523D01*
X190929523Y-119304285D01*
X189215238Y-117494761D02*
X188548571Y-119494761D01*
X187881904Y-117494761D01*
D11*
G04 #@! TO.P,C13,1*
G04 #@! TO.N,Net-(C11-Pad1)*
X150876000Y-138557000D03*
G04 #@! TO.P,C13,2*
G04 #@! TO.N,GND*
X145876000Y-138557000D03*
G04 #@! TD*
D12*
G04 #@! TO.P,C16,2*
G04 #@! TO.N,Net-(C16-Pad2)*
X171196000Y-118952000D03*
G04 #@! TO.P,C16,1*
G04 #@! TO.N,Net-(C16-Pad1)*
X171196000Y-123952000D03*
G04 #@! TD*
D11*
G04 #@! TO.P,C11,1*
G04 #@! TO.N,Net-(C11-Pad1)*
X150876000Y-127381000D03*
G04 #@! TO.P,C11,2*
G04 #@! TO.N,GND*
X145876000Y-127381000D03*
G04 #@! TD*
G04 #@! TO.P,C12,2*
G04 #@! TO.N,GND*
X145876000Y-132969000D03*
G04 #@! TO.P,C12,1*
G04 #@! TO.N,Net-(C11-Pad1)*
X150876000Y-132969000D03*
G04 #@! TD*
G04 #@! TO.P,C17,1*
G04 #@! TO.N,Net-(C16-Pad1)*
X174752000Y-124380000D03*
G04 #@! TO.P,C17,2*
G04 #@! TO.N,GND*
X174752000Y-119380000D03*
G04 #@! TD*
D12*
G04 #@! TO.P,C18,1*
G04 #@! TO.N,Net-(C18-Pad1)*
X179324000Y-117348000D03*
G04 #@! TO.P,C18,2*
G04 #@! TO.N,Net-(C18-Pad2)*
X179324000Y-127348000D03*
G04 #@! TD*
D13*
G04 #@! TO.P,C19,2*
G04 #@! TO.N,Net-(C18-Pad2)*
X164992000Y-141224000D03*
D11*
G04 #@! TO.P,C19,1*
G04 #@! TO.N,Net-(C18-Pad1)*
X189992000Y-141224000D03*
G04 #@! TD*
G04 #@! TO.P,C20,1*
G04 #@! TO.N,Net-(C18-Pad1)*
X189992000Y-133096000D03*
D13*
G04 #@! TO.P,C20,2*
G04 #@! TO.N,Net-(C18-Pad2)*
X164992000Y-133096000D03*
G04 #@! TD*
D12*
G04 #@! TO.P,C14,2*
G04 #@! TO.N,Net-(C14-Pad2)*
X156464000Y-133764000D03*
G04 #@! TO.P,C14,1*
G04 #@! TO.N,Net-(C14-Pad1)*
X156464000Y-143764000D03*
G04 #@! TD*
D14*
G04 #@! TO.P,D2,1*
G04 #@! TO.N,Net-(C14-Pad1)*
X161544000Y-143176000D03*
G04 #@! TO.P,D2,2*
G04 #@! TO.N,Net-(C18-Pad2)*
X161544000Y-138176000D03*
G04 #@! TD*
D15*
G04 #@! TO.P,J3,1*
G04 #@! TO.N,Net-(C11-Pad1)*
X150876000Y-143256000D03*
D16*
G04 #@! TO.P,J3,2*
G04 #@! TO.N,GND*
X148336000Y-143256000D03*
G04 #@! TD*
D12*
G04 #@! TO.P,C15,1*
G04 #@! TO.N,Net-(C15-Pad1)*
X156972000Y-124460000D03*
G04 #@! TO.P,C15,2*
G04 #@! TO.N,GND*
X156972000Y-119460000D03*
G04 #@! TD*
D11*
G04 #@! TO.P,R6,1*
G04 #@! TO.N,Net-(C11-Pad1)*
X153416000Y-115824000D03*
D13*
G04 #@! TO.P,R6,2*
G04 #@! TO.N,Net-(R6-Pad2)*
X153416000Y-123444000D03*
G04 #@! TD*
D17*
G04 #@! TO.P,U2,1*
G04 #@! TO.N,Net-(C14-Pad2)*
X154780000Y-130937000D03*
G04 #@! TO.P,U2,2*
G04 #@! TO.N,Net-(C11-Pad1)*
X154780000Y-129667000D03*
G04 #@! TO.P,U2,3*
G04 #@! TO.N,Net-(R6-Pad2)*
X154780000Y-128397000D03*
G04 #@! TO.P,U2,4*
G04 #@! TO.N,Net-(C15-Pad1)*
X154780000Y-127127000D03*
G04 #@! TO.P,U2,5*
G04 #@! TO.N,Net-(R10-Pad1)*
X160180000Y-127127000D03*
G04 #@! TO.P,U2,6*
G04 #@! TO.N,Net-(C16-Pad1)*
X160180000Y-128397000D03*
G04 #@! TO.P,U2,7*
G04 #@! TO.N,Net-(C18-Pad2)*
X160180000Y-129667000D03*
G04 #@! TO.P,U2,8*
G04 #@! TO.N,Net-(C14-Pad1)*
X160180000Y-130937000D03*
G04 #@! TD*
D16*
G04 #@! TO.P,J4,2*
G04 #@! TO.N,GND*
X185420000Y-127000000D03*
D15*
G04 #@! TO.P,J4,1*
G04 #@! TO.N,Net-(C18-Pad1)*
X187960000Y-127000000D03*
G04 #@! TD*
D11*
G04 #@! TO.P,R10,1*
G04 #@! TO.N,Net-(R10-Pad1)*
X167640000Y-124460000D03*
D13*
G04 #@! TO.P,R10,2*
G04 #@! TO.N,GND*
X167640000Y-116840000D03*
G04 #@! TD*
G04 #@! TO.P,R7,2*
G04 #@! TO.N,GND*
X149860000Y-115824000D03*
D11*
G04 #@! TO.P,R7,1*
G04 #@! TO.N,Net-(R6-Pad2)*
X149860000Y-123444000D03*
G04 #@! TD*
G04 #@! TO.P,R8,1*
G04 #@! TO.N,Net-(C16-Pad2)*
X164084000Y-124460000D03*
D13*
G04 #@! TO.P,R8,2*
G04 #@! TO.N,GND*
X164084000Y-116840000D03*
G04 #@! TD*
D18*
G04 #@! TO.P,L2,1*
G04 #@! TO.N,Net-(C14-Pad1)*
X207264000Y-129032000D03*
G04 #@! TO.P,L2,2*
G04 #@! TO.N,Net-(C18-Pad1)*
X193764000Y-129032000D03*
G04 #@! TD*
D13*
G04 #@! TO.P,R9,2*
G04 #@! TO.N,Net-(R10-Pad1)*
X160528000Y-124460000D03*
D11*
G04 #@! TO.P,R9,1*
G04 #@! TO.N,Net-(C18-Pad1)*
X160528000Y-116840000D03*
G04 #@! TD*
D19*
G04 #@! TO.N,GND*
X145876000Y-140796000D02*
X148336000Y-143256000D01*
X145876000Y-138557000D02*
X145876000Y-140796000D01*
X145876000Y-138557000D02*
X145876000Y-132969000D01*
X145876000Y-132969000D02*
X145876000Y-127381000D01*
X145876000Y-119808000D02*
X145876000Y-127381000D01*
X149860000Y-115824000D02*
X145876000Y-119808000D01*
X149860000Y-115824000D02*
X151892000Y-113792000D01*
X151892000Y-113792000D02*
X154432000Y-113792000D01*
X156972000Y-116332000D02*
X156972000Y-119460000D01*
X154432000Y-113792000D02*
X156972000Y-116332000D01*
X164084000Y-116840000D02*
X167640000Y-116840000D01*
X161464000Y-119460000D02*
X164084000Y-116840000D01*
X156972000Y-119460000D02*
X161464000Y-119460000D01*
X172212000Y-116840000D02*
X167640000Y-116840000D01*
X174752000Y-119380000D02*
X172212000Y-116840000D01*
X176276000Y-119380000D02*
X174752000Y-119380000D01*
X185420000Y-127000000D02*
X183896000Y-127000000D01*
X183896000Y-127000000D02*
X176276000Y-119380000D01*
G04 #@! TO.N,Net-(C11-Pad1)*
X150876000Y-143256000D02*
X150876000Y-138557000D01*
X150876000Y-138557000D02*
X150876000Y-132969000D01*
X147376011Y-123881011D02*
X150076001Y-126581001D01*
X153416000Y-115824000D02*
X147376011Y-121863989D01*
X150076001Y-126581001D02*
X150876000Y-127381000D01*
X147376011Y-121863989D02*
X147376011Y-123881011D01*
D20*
X150876000Y-129540000D02*
X151003000Y-129667000D01*
X151511000Y-129667000D02*
X150876000Y-129032000D01*
X151892000Y-129667000D02*
X151511000Y-129667000D01*
D19*
X150876000Y-129032000D02*
X150876000Y-127381000D01*
X150876000Y-129540000D02*
X150876000Y-129032000D01*
D20*
X151003000Y-129667000D02*
X151892000Y-129667000D01*
X151892000Y-129667000D02*
X154780000Y-129667000D01*
X151257000Y-129667000D02*
X150876000Y-130048000D01*
X151892000Y-129667000D02*
X151257000Y-129667000D01*
D19*
X150876000Y-130048000D02*
X150876000Y-129540000D01*
X150876000Y-132969000D02*
X150876000Y-130556000D01*
X150876000Y-130556000D02*
X150876000Y-130048000D01*
D20*
X151130000Y-130048000D02*
X151511000Y-129667000D01*
X150876000Y-130048000D02*
X151130000Y-130048000D01*
G04 #@! TO.N,Net-(C14-Pad2)*
X154780000Y-132080000D02*
X156464000Y-133764000D01*
X154780000Y-130937000D02*
X154780000Y-132080000D01*
D19*
G04 #@! TO.N,Net-(C14-Pad1)*
X160956000Y-143764000D02*
X161544000Y-143176000D01*
X193120000Y-143176000D02*
X161544000Y-143176000D01*
X207264000Y-129032000D02*
X193120000Y-143176000D01*
D20*
X160180000Y-131737000D02*
X159004000Y-132913000D01*
X160180000Y-130937000D02*
X160180000Y-131737000D01*
X159004000Y-132913000D02*
X159004000Y-142748000D01*
D19*
X156464000Y-143764000D02*
X157988000Y-143764000D01*
X160020000Y-143764000D02*
X160956000Y-143764000D01*
D20*
X159512000Y-143764000D02*
X159004000Y-143256000D01*
X159004000Y-143256000D02*
X159004000Y-143764000D01*
X159004000Y-142748000D02*
X159004000Y-143256000D01*
D19*
X159004000Y-143764000D02*
X159512000Y-143764000D01*
X159512000Y-143764000D02*
X160020000Y-143764000D01*
D20*
X158496000Y-143764000D02*
X159004000Y-143256000D01*
D19*
X157988000Y-143764000D02*
X158496000Y-143764000D01*
X158496000Y-143764000D02*
X159004000Y-143764000D01*
D20*
G04 #@! TO.N,Net-(C15-Pad1)*
X156972000Y-124460000D02*
X156972000Y-124935000D01*
X156972000Y-124935000D02*
X154780000Y-127127000D01*
D19*
G04 #@! TO.N,Net-(C16-Pad2)*
X169592000Y-118952000D02*
X171196000Y-118952000D01*
X164084000Y-124460000D02*
X169592000Y-118952000D01*
G04 #@! TO.N,Net-(C16-Pad1)*
X171624000Y-124380000D02*
X171196000Y-123952000D01*
X174752000Y-124380000D02*
X171624000Y-124380000D01*
D20*
X166751000Y-128397000D02*
X160180000Y-128397000D01*
X171196000Y-123952000D02*
X166751000Y-128397000D01*
D19*
G04 #@! TO.N,Net-(C18-Pad1)*
X189992000Y-132804000D02*
X193764000Y-129032000D01*
X189992000Y-133096000D02*
X189992000Y-132804000D01*
X189992000Y-141224000D02*
X189992000Y-133096000D01*
X187960000Y-127000000D02*
X191732000Y-127000000D01*
X191732000Y-127000000D02*
X193764000Y-129032000D01*
X178324001Y-116348001D02*
X179324000Y-117348000D01*
X177015999Y-115039999D02*
X178324001Y-116348001D01*
X162328001Y-115039999D02*
X177015999Y-115039999D01*
X160528000Y-116840000D02*
X162328001Y-115039999D01*
X187960000Y-125984000D02*
X187960000Y-127000000D01*
X179324000Y-117348000D02*
X187960000Y-125984000D01*
G04 #@! TO.N,Net-(C18-Pad2)*
X164592000Y-141224000D02*
X161544000Y-138176000D01*
X164992000Y-141224000D02*
X164592000Y-141224000D01*
X161544000Y-136544000D02*
X164992000Y-133096000D01*
X161544000Y-138176000D02*
X161544000Y-136544000D01*
X173576000Y-133096000D02*
X164992000Y-133096000D01*
X179324000Y-127348000D02*
X173576000Y-133096000D01*
D20*
X161563000Y-129667000D02*
X164992000Y-133096000D01*
X160180000Y-129667000D02*
X161563000Y-129667000D01*
G04 #@! TO.N,Net-(R6-Pad2)*
X153416000Y-123444000D02*
X153416000Y-124575370D01*
X153416000Y-124575370D02*
X153035000Y-124956370D01*
X154780000Y-128397000D02*
X153505000Y-128397000D01*
X153505000Y-128397000D02*
X153035000Y-127927000D01*
X153035000Y-124956370D02*
X153035000Y-127927000D01*
D19*
X149860000Y-123444000D02*
X153416000Y-123444000D01*
G04 #@! TO.N,Net-(R10-Pad1)*
X165839999Y-126260001D02*
X167640000Y-124460000D01*
X162328001Y-126260001D02*
X165839999Y-126260001D01*
D20*
X162321999Y-126260001D02*
X162328001Y-126260001D01*
X160180000Y-127127000D02*
X161455000Y-127127000D01*
X161544000Y-125476000D02*
X161544000Y-127038000D01*
X161544000Y-127038000D02*
X162321999Y-126260001D01*
X161455000Y-127127000D02*
X161544000Y-127038000D01*
D19*
X160528000Y-124460000D02*
X161544000Y-125476000D01*
X161544000Y-125476000D02*
X162328001Y-126260001D01*
G04 #@! TD*
D20*
G04 #@! TO.N,GND*
G36*
X161066322Y-113778320D02*
X160968689Y-113924438D01*
X160091033Y-114802094D01*
X159366768Y-115102094D01*
X158790094Y-115678768D01*
X158478000Y-116432230D01*
X158478000Y-117247770D01*
X158790094Y-118001232D01*
X159366768Y-118577906D01*
X160120230Y-118890000D01*
X160935770Y-118890000D01*
X161689232Y-118577906D01*
X162265906Y-118001232D01*
X162565906Y-117276967D01*
X162602566Y-117240307D01*
X162757681Y-117657461D01*
X163171470Y-118102796D01*
X163724183Y-118355881D01*
X163836325Y-118378188D01*
X164080000Y-118208494D01*
X164080000Y-116844000D01*
X164088000Y-116844000D01*
X164088000Y-118208494D01*
X164331675Y-118378188D01*
X164443817Y-118355881D01*
X164996530Y-118102796D01*
X165410319Y-117657461D01*
X165622188Y-117087675D01*
X166101812Y-117087675D01*
X166313681Y-117657461D01*
X166727470Y-118102796D01*
X167280183Y-118355881D01*
X167392325Y-118378188D01*
X167636000Y-118208494D01*
X167636000Y-116844000D01*
X166271505Y-116844000D01*
X166101812Y-117087675D01*
X165622188Y-117087675D01*
X165452495Y-116844000D01*
X164088000Y-116844000D01*
X164080000Y-116844000D01*
X164060000Y-116844000D01*
X164060000Y-116836000D01*
X164080000Y-116836000D01*
X164080000Y-116816000D01*
X164088000Y-116816000D01*
X164088000Y-116836000D01*
X165452495Y-116836000D01*
X165484530Y-116789999D01*
X166239470Y-116789999D01*
X166271505Y-116836000D01*
X167636000Y-116836000D01*
X167636000Y-116816000D01*
X167644000Y-116816000D01*
X167644000Y-116836000D01*
X169008495Y-116836000D01*
X169040530Y-116789999D01*
X170535999Y-116789999D01*
X169921477Y-117044542D01*
X169764074Y-117201945D01*
X169591999Y-117167717D01*
X169419648Y-117202000D01*
X169419643Y-117202000D01*
X169112997Y-117262996D01*
X169178188Y-117087675D01*
X169008495Y-116844000D01*
X167644000Y-116844000D01*
X167644000Y-118208494D01*
X167771701Y-118297425D01*
X163647033Y-122422094D01*
X162922768Y-122722094D01*
X162346094Y-123298768D01*
X162296922Y-123417479D01*
X162005967Y-122982033D01*
X161327870Y-122528943D01*
X160729903Y-122410000D01*
X160326097Y-122410000D01*
X159728130Y-122528943D01*
X159050033Y-122982033D01*
X158892713Y-123217478D01*
X158879458Y-123185477D01*
X158246523Y-122552542D01*
X157419553Y-122210000D01*
X156524447Y-122210000D01*
X155697477Y-122552542D01*
X155390000Y-122860019D01*
X155347057Y-122644130D01*
X154893967Y-121966033D01*
X154215870Y-121512943D01*
X153617903Y-121394000D01*
X153214097Y-121394000D01*
X152616130Y-121512943D01*
X152345159Y-121694000D01*
X150992034Y-121694000D01*
X150305320Y-121409554D01*
X151118599Y-120596275D01*
X155841382Y-120596275D01*
X155921669Y-120912463D01*
X156557454Y-121203845D01*
X157256350Y-121229743D01*
X157911956Y-120986213D01*
X158022331Y-120912463D01*
X158102618Y-120596275D01*
X156972000Y-119465657D01*
X155841382Y-120596275D01*
X151118599Y-120596275D01*
X151970524Y-119744350D01*
X155202257Y-119744350D01*
X155445787Y-120399956D01*
X155519537Y-120510331D01*
X155835725Y-120590618D01*
X156966343Y-119460000D01*
X156977657Y-119460000D01*
X158108275Y-120590618D01*
X158424463Y-120510331D01*
X158715845Y-119874546D01*
X158741743Y-119175650D01*
X158498213Y-118520044D01*
X158424463Y-118409669D01*
X158108275Y-118329382D01*
X156977657Y-119460000D01*
X156966343Y-119460000D01*
X155835725Y-118329382D01*
X155519537Y-118409669D01*
X155228155Y-119045454D01*
X155202257Y-119744350D01*
X151970524Y-119744350D01*
X153391149Y-118323725D01*
X155841382Y-118323725D01*
X156972000Y-119454343D01*
X158102618Y-118323725D01*
X158022331Y-118007537D01*
X157386546Y-117716155D01*
X156687650Y-117690257D01*
X156032044Y-117933787D01*
X155921669Y-118007537D01*
X155841382Y-118323725D01*
X153391149Y-118323725D01*
X153852968Y-117861906D01*
X154577232Y-117561906D01*
X155153906Y-116985232D01*
X155466000Y-116231770D01*
X155466000Y-115416230D01*
X155153906Y-114662768D01*
X154577232Y-114086094D01*
X153823770Y-113774000D01*
X153008230Y-113774000D01*
X152254768Y-114086094D01*
X151678094Y-114662768D01*
X151378094Y-115387032D01*
X151341433Y-115423693D01*
X151186319Y-115006539D01*
X150772530Y-114561204D01*
X150219817Y-114308119D01*
X150107675Y-114285812D01*
X149864000Y-114455506D01*
X149864000Y-115820000D01*
X149884000Y-115820000D01*
X149884000Y-115828000D01*
X149864000Y-115828000D01*
X149864000Y-115848000D01*
X149856000Y-115848000D01*
X149856000Y-115828000D01*
X148491505Y-115828000D01*
X148321812Y-116071675D01*
X148533681Y-116641461D01*
X148947470Y-117086796D01*
X149448782Y-117316345D01*
X146260450Y-120504677D01*
X146114332Y-120602310D01*
X145727548Y-121181174D01*
X145626011Y-121691633D01*
X145626011Y-121691636D01*
X145591728Y-121863989D01*
X145626011Y-122036342D01*
X145626012Y-123708654D01*
X145591728Y-123881011D01*
X145727548Y-124563826D01*
X146016700Y-124996573D01*
X146016702Y-124996575D01*
X146114333Y-125142690D01*
X146260448Y-125240321D01*
X148838094Y-127817968D01*
X149126000Y-128513034D01*
X149126000Y-130728356D01*
X149126001Y-130728360D01*
X149126000Y-131836964D01*
X148826000Y-132561230D01*
X148826000Y-133376770D01*
X149126001Y-134101036D01*
X149126000Y-137424965D01*
X148826000Y-138149230D01*
X148826000Y-138964770D01*
X149126001Y-139689036D01*
X149126000Y-141504000D01*
X149124801Y-141504801D01*
X148931501Y-141794096D01*
X148707489Y-141691500D01*
X148591497Y-141668428D01*
X148340000Y-141837506D01*
X148340000Y-143252000D01*
X148360000Y-143252000D01*
X148360000Y-143260000D01*
X148340000Y-143260000D01*
X148340000Y-143280000D01*
X148332000Y-143280000D01*
X148332000Y-143260000D01*
X146917505Y-143260000D01*
X146748428Y-143511497D01*
X146967049Y-144099586D01*
X147312098Y-144471000D01*
X145089000Y-144471000D01*
X145089000Y-143000503D01*
X146748428Y-143000503D01*
X146917505Y-143252000D01*
X148332000Y-143252000D01*
X148332000Y-141837506D01*
X148080503Y-141668428D01*
X147964511Y-141691500D01*
X147394081Y-141952753D01*
X146967049Y-142412414D01*
X146748428Y-143000503D01*
X145089000Y-143000503D01*
X145089000Y-139910193D01*
X145509058Y-140102561D01*
X146128450Y-140125335D01*
X146709409Y-139909344D01*
X146806471Y-139844489D01*
X146862426Y-139549083D01*
X145876000Y-138562657D01*
X145861858Y-138576799D01*
X145856201Y-138571142D01*
X145870343Y-138557000D01*
X145881657Y-138557000D01*
X146868083Y-139543426D01*
X147163489Y-139487471D01*
X147421561Y-138923942D01*
X147444335Y-138304550D01*
X147228344Y-137723591D01*
X147163489Y-137626529D01*
X146868083Y-137570574D01*
X145881657Y-138557000D01*
X145870343Y-138557000D01*
X145856201Y-138542858D01*
X145861858Y-138537201D01*
X145876000Y-138551343D01*
X146862426Y-137564917D01*
X146806471Y-137269511D01*
X146242942Y-137011439D01*
X145623550Y-136988665D01*
X145089000Y-137187402D01*
X145089000Y-134322193D01*
X145509058Y-134514561D01*
X146128450Y-134537335D01*
X146709409Y-134321344D01*
X146806471Y-134256489D01*
X146862426Y-133961083D01*
X145876000Y-132974657D01*
X145861858Y-132988799D01*
X145856201Y-132983142D01*
X145870343Y-132969000D01*
X145881657Y-132969000D01*
X146868083Y-133955426D01*
X147163489Y-133899471D01*
X147421561Y-133335942D01*
X147444335Y-132716550D01*
X147228344Y-132135591D01*
X147163489Y-132038529D01*
X146868083Y-131982574D01*
X145881657Y-132969000D01*
X145870343Y-132969000D01*
X145856201Y-132954858D01*
X145861858Y-132949201D01*
X145876000Y-132963343D01*
X146862426Y-131976917D01*
X146806471Y-131681511D01*
X146242942Y-131423439D01*
X145623550Y-131400665D01*
X145089000Y-131599402D01*
X145089000Y-128734193D01*
X145509058Y-128926561D01*
X146128450Y-128949335D01*
X146709409Y-128733344D01*
X146806471Y-128668489D01*
X146862426Y-128373083D01*
X145876000Y-127386657D01*
X145861858Y-127400799D01*
X145856201Y-127395142D01*
X145870343Y-127381000D01*
X145881657Y-127381000D01*
X146868083Y-128367426D01*
X147163489Y-128311471D01*
X147421561Y-127747942D01*
X147444335Y-127128550D01*
X147228344Y-126547591D01*
X147163489Y-126450529D01*
X146868083Y-126394574D01*
X145881657Y-127381000D01*
X145870343Y-127381000D01*
X145856201Y-127366858D01*
X145861858Y-127361201D01*
X145876000Y-127375343D01*
X146862426Y-126388917D01*
X146806471Y-126093511D01*
X146242942Y-125835439D01*
X145623550Y-125812665D01*
X145089000Y-126011402D01*
X145089000Y-115576325D01*
X148321812Y-115576325D01*
X148491505Y-115820000D01*
X149856000Y-115820000D01*
X149856000Y-114455506D01*
X149612325Y-114285812D01*
X149500183Y-114308119D01*
X148947470Y-114561204D01*
X148533681Y-115006539D01*
X148321812Y-115576325D01*
X145089000Y-115576325D01*
X145089000Y-113593000D01*
X161343673Y-113593000D01*
X161066322Y-113778320D01*
X161066322Y-113778320D01*
G37*
X161066322Y-113778320D02*
X160968689Y-113924438D01*
X160091033Y-114802094D01*
X159366768Y-115102094D01*
X158790094Y-115678768D01*
X158478000Y-116432230D01*
X158478000Y-117247770D01*
X158790094Y-118001232D01*
X159366768Y-118577906D01*
X160120230Y-118890000D01*
X160935770Y-118890000D01*
X161689232Y-118577906D01*
X162265906Y-118001232D01*
X162565906Y-117276967D01*
X162602566Y-117240307D01*
X162757681Y-117657461D01*
X163171470Y-118102796D01*
X163724183Y-118355881D01*
X163836325Y-118378188D01*
X164080000Y-118208494D01*
X164080000Y-116844000D01*
X164088000Y-116844000D01*
X164088000Y-118208494D01*
X164331675Y-118378188D01*
X164443817Y-118355881D01*
X164996530Y-118102796D01*
X165410319Y-117657461D01*
X165622188Y-117087675D01*
X166101812Y-117087675D01*
X166313681Y-117657461D01*
X166727470Y-118102796D01*
X167280183Y-118355881D01*
X167392325Y-118378188D01*
X167636000Y-118208494D01*
X167636000Y-116844000D01*
X166271505Y-116844000D01*
X166101812Y-117087675D01*
X165622188Y-117087675D01*
X165452495Y-116844000D01*
X164088000Y-116844000D01*
X164080000Y-116844000D01*
X164060000Y-116844000D01*
X164060000Y-116836000D01*
X164080000Y-116836000D01*
X164080000Y-116816000D01*
X164088000Y-116816000D01*
X164088000Y-116836000D01*
X165452495Y-116836000D01*
X165484530Y-116789999D01*
X166239470Y-116789999D01*
X166271505Y-116836000D01*
X167636000Y-116836000D01*
X167636000Y-116816000D01*
X167644000Y-116816000D01*
X167644000Y-116836000D01*
X169008495Y-116836000D01*
X169040530Y-116789999D01*
X170535999Y-116789999D01*
X169921477Y-117044542D01*
X169764074Y-117201945D01*
X169591999Y-117167717D01*
X169419648Y-117202000D01*
X169419643Y-117202000D01*
X169112997Y-117262996D01*
X169178188Y-117087675D01*
X169008495Y-116844000D01*
X167644000Y-116844000D01*
X167644000Y-118208494D01*
X167771701Y-118297425D01*
X163647033Y-122422094D01*
X162922768Y-122722094D01*
X162346094Y-123298768D01*
X162296922Y-123417479D01*
X162005967Y-122982033D01*
X161327870Y-122528943D01*
X160729903Y-122410000D01*
X160326097Y-122410000D01*
X159728130Y-122528943D01*
X159050033Y-122982033D01*
X158892713Y-123217478D01*
X158879458Y-123185477D01*
X158246523Y-122552542D01*
X157419553Y-122210000D01*
X156524447Y-122210000D01*
X155697477Y-122552542D01*
X155390000Y-122860019D01*
X155347057Y-122644130D01*
X154893967Y-121966033D01*
X154215870Y-121512943D01*
X153617903Y-121394000D01*
X153214097Y-121394000D01*
X152616130Y-121512943D01*
X152345159Y-121694000D01*
X150992034Y-121694000D01*
X150305320Y-121409554D01*
X151118599Y-120596275D01*
X155841382Y-120596275D01*
X155921669Y-120912463D01*
X156557454Y-121203845D01*
X157256350Y-121229743D01*
X157911956Y-120986213D01*
X158022331Y-120912463D01*
X158102618Y-120596275D01*
X156972000Y-119465657D01*
X155841382Y-120596275D01*
X151118599Y-120596275D01*
X151970524Y-119744350D01*
X155202257Y-119744350D01*
X155445787Y-120399956D01*
X155519537Y-120510331D01*
X155835725Y-120590618D01*
X156966343Y-119460000D01*
X156977657Y-119460000D01*
X158108275Y-120590618D01*
X158424463Y-120510331D01*
X158715845Y-119874546D01*
X158741743Y-119175650D01*
X158498213Y-118520044D01*
X158424463Y-118409669D01*
X158108275Y-118329382D01*
X156977657Y-119460000D01*
X156966343Y-119460000D01*
X155835725Y-118329382D01*
X155519537Y-118409669D01*
X155228155Y-119045454D01*
X155202257Y-119744350D01*
X151970524Y-119744350D01*
X153391149Y-118323725D01*
X155841382Y-118323725D01*
X156972000Y-119454343D01*
X158102618Y-118323725D01*
X158022331Y-118007537D01*
X157386546Y-117716155D01*
X156687650Y-117690257D01*
X156032044Y-117933787D01*
X155921669Y-118007537D01*
X155841382Y-118323725D01*
X153391149Y-118323725D01*
X153852968Y-117861906D01*
X154577232Y-117561906D01*
X155153906Y-116985232D01*
X155466000Y-116231770D01*
X155466000Y-115416230D01*
X155153906Y-114662768D01*
X154577232Y-114086094D01*
X153823770Y-113774000D01*
X153008230Y-113774000D01*
X152254768Y-114086094D01*
X151678094Y-114662768D01*
X151378094Y-115387032D01*
X151341433Y-115423693D01*
X151186319Y-115006539D01*
X150772530Y-114561204D01*
X150219817Y-114308119D01*
X150107675Y-114285812D01*
X149864000Y-114455506D01*
X149864000Y-115820000D01*
X149884000Y-115820000D01*
X149884000Y-115828000D01*
X149864000Y-115828000D01*
X149864000Y-115848000D01*
X149856000Y-115848000D01*
X149856000Y-115828000D01*
X148491505Y-115828000D01*
X148321812Y-116071675D01*
X148533681Y-116641461D01*
X148947470Y-117086796D01*
X149448782Y-117316345D01*
X146260450Y-120504677D01*
X146114332Y-120602310D01*
X145727548Y-121181174D01*
X145626011Y-121691633D01*
X145626011Y-121691636D01*
X145591728Y-121863989D01*
X145626011Y-122036342D01*
X145626012Y-123708654D01*
X145591728Y-123881011D01*
X145727548Y-124563826D01*
X146016700Y-124996573D01*
X146016702Y-124996575D01*
X146114333Y-125142690D01*
X146260448Y-125240321D01*
X148838094Y-127817968D01*
X149126000Y-128513034D01*
X149126000Y-130728356D01*
X149126001Y-130728360D01*
X149126000Y-131836964D01*
X148826000Y-132561230D01*
X148826000Y-133376770D01*
X149126001Y-134101036D01*
X149126000Y-137424965D01*
X148826000Y-138149230D01*
X148826000Y-138964770D01*
X149126001Y-139689036D01*
X149126000Y-141504000D01*
X149124801Y-141504801D01*
X148931501Y-141794096D01*
X148707489Y-141691500D01*
X148591497Y-141668428D01*
X148340000Y-141837506D01*
X148340000Y-143252000D01*
X148360000Y-143252000D01*
X148360000Y-143260000D01*
X148340000Y-143260000D01*
X148340000Y-143280000D01*
X148332000Y-143280000D01*
X148332000Y-143260000D01*
X146917505Y-143260000D01*
X146748428Y-143511497D01*
X146967049Y-144099586D01*
X147312098Y-144471000D01*
X145089000Y-144471000D01*
X145089000Y-143000503D01*
X146748428Y-143000503D01*
X146917505Y-143252000D01*
X148332000Y-143252000D01*
X148332000Y-141837506D01*
X148080503Y-141668428D01*
X147964511Y-141691500D01*
X147394081Y-141952753D01*
X146967049Y-142412414D01*
X146748428Y-143000503D01*
X145089000Y-143000503D01*
X145089000Y-139910193D01*
X145509058Y-140102561D01*
X146128450Y-140125335D01*
X146709409Y-139909344D01*
X146806471Y-139844489D01*
X146862426Y-139549083D01*
X145876000Y-138562657D01*
X145861858Y-138576799D01*
X145856201Y-138571142D01*
X145870343Y-138557000D01*
X145881657Y-138557000D01*
X146868083Y-139543426D01*
X147163489Y-139487471D01*
X147421561Y-138923942D01*
X147444335Y-138304550D01*
X147228344Y-137723591D01*
X147163489Y-137626529D01*
X146868083Y-137570574D01*
X145881657Y-138557000D01*
X145870343Y-138557000D01*
X145856201Y-138542858D01*
X145861858Y-138537201D01*
X145876000Y-138551343D01*
X146862426Y-137564917D01*
X146806471Y-137269511D01*
X146242942Y-137011439D01*
X145623550Y-136988665D01*
X145089000Y-137187402D01*
X145089000Y-134322193D01*
X145509058Y-134514561D01*
X146128450Y-134537335D01*
X146709409Y-134321344D01*
X146806471Y-134256489D01*
X146862426Y-133961083D01*
X145876000Y-132974657D01*
X145861858Y-132988799D01*
X145856201Y-132983142D01*
X145870343Y-132969000D01*
X145881657Y-132969000D01*
X146868083Y-133955426D01*
X147163489Y-133899471D01*
X147421561Y-133335942D01*
X147444335Y-132716550D01*
X147228344Y-132135591D01*
X147163489Y-132038529D01*
X146868083Y-131982574D01*
X145881657Y-132969000D01*
X145870343Y-132969000D01*
X145856201Y-132954858D01*
X145861858Y-132949201D01*
X145876000Y-132963343D01*
X146862426Y-131976917D01*
X146806471Y-131681511D01*
X146242942Y-131423439D01*
X145623550Y-131400665D01*
X145089000Y-131599402D01*
X145089000Y-128734193D01*
X145509058Y-128926561D01*
X146128450Y-128949335D01*
X146709409Y-128733344D01*
X146806471Y-128668489D01*
X146862426Y-128373083D01*
X145876000Y-127386657D01*
X145861858Y-127400799D01*
X145856201Y-127395142D01*
X145870343Y-127381000D01*
X145881657Y-127381000D01*
X146868083Y-128367426D01*
X147163489Y-128311471D01*
X147421561Y-127747942D01*
X147444335Y-127128550D01*
X147228344Y-126547591D01*
X147163489Y-126450529D01*
X146868083Y-126394574D01*
X145881657Y-127381000D01*
X145870343Y-127381000D01*
X145856201Y-127366858D01*
X145861858Y-127361201D01*
X145876000Y-127375343D01*
X146862426Y-126388917D01*
X146806471Y-126093511D01*
X146242942Y-125835439D01*
X145623550Y-125812665D01*
X145089000Y-126011402D01*
X145089000Y-115576325D01*
X148321812Y-115576325D01*
X148491505Y-115820000D01*
X149856000Y-115820000D01*
X149856000Y-114455506D01*
X149612325Y-114285812D01*
X149500183Y-114308119D01*
X148947470Y-114561204D01*
X148533681Y-115006539D01*
X148321812Y-115576325D01*
X145089000Y-115576325D01*
X145089000Y-113593000D01*
X161343673Y-113593000D01*
X161066322Y-113778320D01*
G36*
X177074000Y-117572874D02*
X177074000Y-117795553D01*
X177416542Y-118622523D01*
X178049477Y-119255458D01*
X178876447Y-119598000D01*
X179099127Y-119598000D01*
X184971772Y-125470646D01*
X184478081Y-125696753D01*
X184051049Y-126156414D01*
X183832428Y-126744503D01*
X184001505Y-126996000D01*
X185416000Y-126996000D01*
X185416000Y-126976000D01*
X185424000Y-126976000D01*
X185424000Y-126996000D01*
X185444000Y-126996000D01*
X185444000Y-127004000D01*
X185424000Y-127004000D01*
X185424000Y-128418494D01*
X185675497Y-128587572D01*
X185791489Y-128564500D01*
X186015501Y-128461904D01*
X186208801Y-128751199D01*
X186622275Y-129027473D01*
X187110000Y-129124488D01*
X188810000Y-129124488D01*
X189297725Y-129027473D01*
X189711199Y-128751199D01*
X189712000Y-128750000D01*
X190714000Y-128750000D01*
X190714000Y-129607127D01*
X189056558Y-131264569D01*
X188830768Y-131358094D01*
X188254094Y-131934768D01*
X187942000Y-132688230D01*
X187942000Y-133503770D01*
X188242001Y-134228037D01*
X188242000Y-140091965D01*
X187942000Y-140816230D01*
X187942000Y-141426000D01*
X167041981Y-141426000D01*
X167082161Y-141224000D01*
X166923057Y-140424130D01*
X166469967Y-139746033D01*
X165791870Y-139292943D01*
X165193903Y-139174000D01*
X165016874Y-139174000D01*
X163718488Y-137875615D01*
X163718488Y-136844385D01*
X165472238Y-135090636D01*
X165791870Y-135027057D01*
X166062841Y-134846000D01*
X173403647Y-134846000D01*
X173576000Y-134880283D01*
X173748353Y-134846000D01*
X173748357Y-134846000D01*
X174258816Y-134744463D01*
X174837679Y-134357679D01*
X174935312Y-134211561D01*
X179548873Y-129598000D01*
X179771553Y-129598000D01*
X180598523Y-129255458D01*
X181231458Y-128622523D01*
X181574000Y-127795553D01*
X181574000Y-127255497D01*
X183832428Y-127255497D01*
X184051049Y-127843586D01*
X184478081Y-128303247D01*
X185048511Y-128564500D01*
X185164503Y-128587572D01*
X185416000Y-128418494D01*
X185416000Y-127004000D01*
X184001505Y-127004000D01*
X183832428Y-127255497D01*
X181574000Y-127255497D01*
X181574000Y-126900447D01*
X181231458Y-126073477D01*
X180598523Y-125440542D01*
X179771553Y-125098000D01*
X178876447Y-125098000D01*
X178049477Y-125440542D01*
X177416542Y-126073477D01*
X177074000Y-126900447D01*
X177074000Y-127123127D01*
X172851127Y-131346000D01*
X166062841Y-131346000D01*
X165791870Y-131164943D01*
X165193903Y-131046000D01*
X165063320Y-131046000D01*
X163914320Y-129897000D01*
X166603271Y-129897000D01*
X166751000Y-129926385D01*
X166898729Y-129897000D01*
X166898733Y-129897000D01*
X167336271Y-129809968D01*
X167832439Y-129478439D01*
X167916123Y-129353197D01*
X171067320Y-126202000D01*
X171643553Y-126202000D01*
X171817376Y-126130000D01*
X173619966Y-126130000D01*
X174344230Y-126430000D01*
X175159770Y-126430000D01*
X175913232Y-126117906D01*
X176489906Y-125541232D01*
X176802000Y-124787770D01*
X176802000Y-123972230D01*
X176489906Y-123218768D01*
X175913232Y-122642094D01*
X175159770Y-122330000D01*
X174344230Y-122330000D01*
X173619966Y-122630000D01*
X173055981Y-122630000D01*
X172470523Y-122044542D01*
X171643553Y-121702000D01*
X170748447Y-121702000D01*
X169921477Y-122044542D01*
X169288542Y-122677477D01*
X169132744Y-123053606D01*
X168801232Y-122722094D01*
X168444530Y-122574343D01*
X170089725Y-120929149D01*
X170748447Y-121202000D01*
X171643553Y-121202000D01*
X172470523Y-120859458D01*
X172957898Y-120372083D01*
X173765574Y-120372083D01*
X173821529Y-120667489D01*
X174385058Y-120925561D01*
X175004450Y-120948335D01*
X175585409Y-120732344D01*
X175682471Y-120667489D01*
X175738426Y-120372083D01*
X174752000Y-119385657D01*
X173765574Y-120372083D01*
X172957898Y-120372083D01*
X173103458Y-120226523D01*
X173262121Y-119843476D01*
X173399656Y-120213409D01*
X173464511Y-120310471D01*
X173759917Y-120366426D01*
X174746343Y-119380000D01*
X174757657Y-119380000D01*
X175744083Y-120366426D01*
X176039489Y-120310471D01*
X176297561Y-119746942D01*
X176320335Y-119127550D01*
X176104344Y-118546591D01*
X176039489Y-118449529D01*
X175744083Y-118393574D01*
X174757657Y-119380000D01*
X174746343Y-119380000D01*
X173759917Y-118393574D01*
X173464511Y-118449529D01*
X173442847Y-118496835D01*
X173397732Y-118387917D01*
X173765574Y-118387917D01*
X174752000Y-119374343D01*
X175738426Y-118387917D01*
X175682471Y-118092511D01*
X175118942Y-117834439D01*
X174499550Y-117811665D01*
X173918591Y-118027656D01*
X173821529Y-118092511D01*
X173765574Y-118387917D01*
X173397732Y-118387917D01*
X173103458Y-117677477D01*
X172470523Y-117044542D01*
X171856001Y-116789999D01*
X176291126Y-116789999D01*
X177074000Y-117572874D01*
X177074000Y-117572874D01*
G37*
X177074000Y-117572874D02*
X177074000Y-117795553D01*
X177416542Y-118622523D01*
X178049477Y-119255458D01*
X178876447Y-119598000D01*
X179099127Y-119598000D01*
X184971772Y-125470646D01*
X184478081Y-125696753D01*
X184051049Y-126156414D01*
X183832428Y-126744503D01*
X184001505Y-126996000D01*
X185416000Y-126996000D01*
X185416000Y-126976000D01*
X185424000Y-126976000D01*
X185424000Y-126996000D01*
X185444000Y-126996000D01*
X185444000Y-127004000D01*
X185424000Y-127004000D01*
X185424000Y-128418494D01*
X185675497Y-128587572D01*
X185791489Y-128564500D01*
X186015501Y-128461904D01*
X186208801Y-128751199D01*
X186622275Y-129027473D01*
X187110000Y-129124488D01*
X188810000Y-129124488D01*
X189297725Y-129027473D01*
X189711199Y-128751199D01*
X189712000Y-128750000D01*
X190714000Y-128750000D01*
X190714000Y-129607127D01*
X189056558Y-131264569D01*
X188830768Y-131358094D01*
X188254094Y-131934768D01*
X187942000Y-132688230D01*
X187942000Y-133503770D01*
X188242001Y-134228037D01*
X188242000Y-140091965D01*
X187942000Y-140816230D01*
X187942000Y-141426000D01*
X167041981Y-141426000D01*
X167082161Y-141224000D01*
X166923057Y-140424130D01*
X166469967Y-139746033D01*
X165791870Y-139292943D01*
X165193903Y-139174000D01*
X165016874Y-139174000D01*
X163718488Y-137875615D01*
X163718488Y-136844385D01*
X165472238Y-135090636D01*
X165791870Y-135027057D01*
X166062841Y-134846000D01*
X173403647Y-134846000D01*
X173576000Y-134880283D01*
X173748353Y-134846000D01*
X173748357Y-134846000D01*
X174258816Y-134744463D01*
X174837679Y-134357679D01*
X174935312Y-134211561D01*
X179548873Y-129598000D01*
X179771553Y-129598000D01*
X180598523Y-129255458D01*
X181231458Y-128622523D01*
X181574000Y-127795553D01*
X181574000Y-127255497D01*
X183832428Y-127255497D01*
X184051049Y-127843586D01*
X184478081Y-128303247D01*
X185048511Y-128564500D01*
X185164503Y-128587572D01*
X185416000Y-128418494D01*
X185416000Y-127004000D01*
X184001505Y-127004000D01*
X183832428Y-127255497D01*
X181574000Y-127255497D01*
X181574000Y-126900447D01*
X181231458Y-126073477D01*
X180598523Y-125440542D01*
X179771553Y-125098000D01*
X178876447Y-125098000D01*
X178049477Y-125440542D01*
X177416542Y-126073477D01*
X177074000Y-126900447D01*
X177074000Y-127123127D01*
X172851127Y-131346000D01*
X166062841Y-131346000D01*
X165791870Y-131164943D01*
X165193903Y-131046000D01*
X165063320Y-131046000D01*
X163914320Y-129897000D01*
X166603271Y-129897000D01*
X166751000Y-129926385D01*
X166898729Y-129897000D01*
X166898733Y-129897000D01*
X167336271Y-129809968D01*
X167832439Y-129478439D01*
X167916123Y-129353197D01*
X171067320Y-126202000D01*
X171643553Y-126202000D01*
X171817376Y-126130000D01*
X173619966Y-126130000D01*
X174344230Y-126430000D01*
X175159770Y-126430000D01*
X175913232Y-126117906D01*
X176489906Y-125541232D01*
X176802000Y-124787770D01*
X176802000Y-123972230D01*
X176489906Y-123218768D01*
X175913232Y-122642094D01*
X175159770Y-122330000D01*
X174344230Y-122330000D01*
X173619966Y-122630000D01*
X173055981Y-122630000D01*
X172470523Y-122044542D01*
X171643553Y-121702000D01*
X170748447Y-121702000D01*
X169921477Y-122044542D01*
X169288542Y-122677477D01*
X169132744Y-123053606D01*
X168801232Y-122722094D01*
X168444530Y-122574343D01*
X170089725Y-120929149D01*
X170748447Y-121202000D01*
X171643553Y-121202000D01*
X172470523Y-120859458D01*
X172957898Y-120372083D01*
X173765574Y-120372083D01*
X173821529Y-120667489D01*
X174385058Y-120925561D01*
X175004450Y-120948335D01*
X175585409Y-120732344D01*
X175682471Y-120667489D01*
X175738426Y-120372083D01*
X174752000Y-119385657D01*
X173765574Y-120372083D01*
X172957898Y-120372083D01*
X173103458Y-120226523D01*
X173262121Y-119843476D01*
X173399656Y-120213409D01*
X173464511Y-120310471D01*
X173759917Y-120366426D01*
X174746343Y-119380000D01*
X174757657Y-119380000D01*
X175744083Y-120366426D01*
X176039489Y-120310471D01*
X176297561Y-119746942D01*
X176320335Y-119127550D01*
X176104344Y-118546591D01*
X176039489Y-118449529D01*
X175744083Y-118393574D01*
X174757657Y-119380000D01*
X174746343Y-119380000D01*
X173759917Y-118393574D01*
X173464511Y-118449529D01*
X173442847Y-118496835D01*
X173397732Y-118387917D01*
X173765574Y-118387917D01*
X174752000Y-119374343D01*
X175738426Y-118387917D01*
X175682471Y-118092511D01*
X175118942Y-117834439D01*
X174499550Y-117811665D01*
X173918591Y-118027656D01*
X173821529Y-118092511D01*
X173765574Y-118387917D01*
X173397732Y-118387917D01*
X173103458Y-117677477D01*
X172470523Y-117044542D01*
X171856001Y-116789999D01*
X176291126Y-116789999D01*
X177074000Y-117572874D01*
G04 #@! TD*
M02*
