M48
;DRILL file {KiCad (5.0.0)} date 11/17/21 09:12:32
;FORMAT={-:-/ absolute / metric / decimal}
FMAT,2
METRIC,TZ
T1C0.800
T2C1.000
T3C1.800
%
G90
G05
M71
T1
X160.528Y-124.46
X149.86Y-115.824
X150.876Y-132.969
X167.64Y-116.84
X167.64Y-124.46
X164.084Y-116.84
X164.084Y-124.46
X174.752Y-119.38
X174.752Y-124.38
X145.876Y-138.557
X150.876Y-138.557
X160.528Y-116.84
X153.416Y-115.824
X153.416Y-123.444
X145.876Y-127.381
X150.876Y-127.381
X164.992Y-133.096
X189.992Y-133.096
X149.86Y-123.444
X164.992Y-141.224
X189.992Y-141.224
X145.876Y-132.969
T2
X156.972Y-119.46
X156.972Y-124.46
X148.336Y-143.256
X150.876Y-143.256
X156.464Y-133.764
X156.464Y-143.764
X179.324Y-117.348
X179.324Y-127.348
X185.42Y-127.
X187.96Y-127.
X171.196Y-118.952
X171.196Y-123.952
T3
X193.764Y-129.032
X207.264Y-129.032
T0
M30
