G04 #@! TF.GenerationSoftware,KiCad,Pcbnew,(5.0.0)*
G04 #@! TF.CreationDate,2021-10-12T10:56:01+02:00*
G04 #@! TF.ProjectId,L298N,4C3239384E2E6B696361645F70636200,rev?*
G04 #@! TF.SameCoordinates,Original*
G04 #@! TF.FileFunction,Copper,L1,Top,Signal*
G04 #@! TF.FilePolarity,Positive*
%FSLAX46Y46*%
G04 Gerber Fmt 4.6, Leading zero omitted, Abs format (unit mm)*
G04 Created by KiCad (PCBNEW (5.0.0)) date 10/12/21 10:56:01*
%MOMM*%
%LPD*%
G01*
G04 APERTURE LIST*
G04 #@! TA.AperFunction,ComponentPad*
%ADD10O,2.400000X2.400000*%
G04 #@! TD*
G04 #@! TA.AperFunction,ComponentPad*
%ADD11C,2.400000*%
G04 #@! TD*
G04 #@! TA.AperFunction,ComponentPad*
%ADD12R,1.700000X1.700000*%
G04 #@! TD*
G04 #@! TA.AperFunction,ComponentPad*
%ADD13O,1.700000X1.700000*%
G04 #@! TD*
G04 #@! TA.AperFunction,ComponentPad*
%ADD14R,1.800000X1.800000*%
G04 #@! TD*
G04 #@! TA.AperFunction,ComponentPad*
%ADD15O,1.800000X1.800000*%
G04 #@! TD*
G04 #@! TA.AperFunction,Conductor*
%ADD16C,1.000000*%
G04 #@! TD*
G04 #@! TA.AperFunction,Conductor*
%ADD17C,0.254000*%
G04 #@! TD*
G04 APERTURE END LIST*
D10*
G04 #@! TO.P,R2,2*
G04 #@! TO.N,GND*
X170180000Y-94996000D03*
D11*
G04 #@! TO.P,R2,1*
G04 #@! TO.N,Net-(R2-Pad1)*
X170180000Y-102616000D03*
G04 #@! TD*
D12*
G04 #@! TO.P,J1,1*
G04 #@! TO.N,+5V*
X153924000Y-92456000D03*
D13*
G04 #@! TO.P,J1,2*
G04 #@! TO.N,GND*
X156464000Y-92456000D03*
G04 #@! TD*
D12*
G04 #@! TO.P,M1,1*
G04 #@! TO.N,Net-(M1-Pad1)*
X144272000Y-99060000D03*
D13*
G04 #@! TO.P,M1,2*
G04 #@! TO.N,Net-(M1-Pad2)*
X144272000Y-101600000D03*
G04 #@! TD*
D11*
G04 #@! TO.P,R1,1*
G04 #@! TO.N,Net-(R1-Pad1)*
X139192000Y-102616000D03*
D10*
G04 #@! TO.P,R1,2*
G04 #@! TO.N,GND*
X139192000Y-94996000D03*
G04 #@! TD*
D14*
G04 #@! TO.P,U1,1*
G04 #@! TO.N,Net-(R1-Pad1)*
X147828000Y-104343001D03*
D15*
G04 #@! TO.P,U1,2*
G04 #@! TO.N,Net-(M1-Pad1)*
X149098000Y-99263001D03*
G04 #@! TO.P,U1,3*
G04 #@! TO.N,Net-(M1-Pad2)*
X150368000Y-104343001D03*
G04 #@! TO.P,U1,4*
G04 #@! TO.N,+5V*
X151638000Y-99263001D03*
G04 #@! TO.P,U1,5*
G04 #@! TO.N,N/C*
X152908000Y-104343001D03*
G04 #@! TO.P,U1,6*
G04 #@! TO.N,+5V*
X154178000Y-99263001D03*
G04 #@! TO.P,U1,7*
G04 #@! TO.N,N/C*
X155448000Y-104343001D03*
G04 #@! TO.P,U1,8*
G04 #@! TO.N,GND*
X156718000Y-99263001D03*
G04 #@! TO.P,U1,9*
G04 #@! TO.N,+5V*
X157988000Y-104343001D03*
G04 #@! TO.P,U1,10*
G04 #@! TO.N,N/C*
X159258000Y-99263001D03*
G04 #@! TO.P,U1,11*
X160528000Y-104343001D03*
G04 #@! TO.P,U1,12*
X161798000Y-99263001D03*
G04 #@! TO.P,U1,13*
X163068000Y-104343001D03*
G04 #@! TO.P,U1,14*
X164338000Y-99263001D03*
G04 #@! TO.P,U1,15*
G04 #@! TO.N,Net-(R2-Pad1)*
X165608000Y-104343001D03*
G04 #@! TD*
D16*
G04 #@! TO.N,Net-(R1-Pad1)*
X140919001Y-104343001D02*
X139192000Y-102616000D01*
X147828000Y-104343001D02*
X140919001Y-104343001D01*
G04 #@! TO.N,Net-(M1-Pad1)*
X148894999Y-99060000D02*
X149098000Y-99263001D01*
X144272000Y-99060000D02*
X148894999Y-99060000D01*
G04 #@! TO.N,Net-(M1-Pad2)*
X150368000Y-103070209D02*
X150368000Y-104343001D01*
X148897791Y-101600000D02*
X150368000Y-103070209D01*
X144272000Y-101600000D02*
X148897791Y-101600000D01*
G04 #@! TO.N,+5V*
X157988000Y-104343001D02*
X154432000Y-100787001D01*
X154178000Y-100535793D02*
X154178000Y-99263001D01*
X154429208Y-100787001D02*
X154178000Y-100535793D01*
X154432000Y-100787001D02*
X154429208Y-100787001D01*
X151638000Y-99263001D02*
X154178000Y-99263001D01*
X154178000Y-92710000D02*
X153924000Y-92456000D01*
X154178000Y-99263001D02*
X154178000Y-92710000D01*
G04 #@! TO.N,GND*
X156718000Y-92710000D02*
X156464000Y-92456000D01*
X156718000Y-99263001D02*
X156718000Y-92710000D01*
X159004000Y-94996000D02*
X156464000Y-92456000D01*
X170180000Y-94996000D02*
X159004000Y-94996000D01*
X156464000Y-91253919D02*
X156464000Y-92456000D01*
X155126081Y-89916000D02*
X156464000Y-91253919D01*
X144272000Y-89916000D02*
X155126081Y-89916000D01*
X139192000Y-94996000D02*
X144272000Y-89916000D01*
G04 #@! TO.N,Net-(R2-Pad1)*
X168452999Y-104343001D02*
X170180000Y-102616000D01*
X165608000Y-104343001D02*
X168452999Y-104343001D01*
G04 #@! TD*
D17*
G04 #@! TO.N,GND*
G36*
X173026000Y-105462000D02*
X168645225Y-105462000D01*
X168895854Y-105412147D01*
X169271288Y-105161290D01*
X169334612Y-105066519D01*
X169950131Y-104451000D01*
X170545004Y-104451000D01*
X171219444Y-104171638D01*
X171735638Y-103655444D01*
X172015000Y-102981004D01*
X172015000Y-102250996D01*
X171735638Y-101576556D01*
X171219444Y-101060362D01*
X170545004Y-100781000D01*
X169814996Y-100781000D01*
X169140556Y-101060362D01*
X168624362Y-101576556D01*
X168345000Y-102250996D01*
X168345000Y-102845869D01*
X167982868Y-103208001D01*
X166672279Y-103208001D01*
X166206927Y-102897063D01*
X165759182Y-102808001D01*
X165456818Y-102808001D01*
X165009073Y-102897063D01*
X164501327Y-103236328D01*
X164338000Y-103480764D01*
X164174673Y-103236328D01*
X163666927Y-102897063D01*
X163219182Y-102808001D01*
X162916818Y-102808001D01*
X162469073Y-102897063D01*
X161961327Y-103236328D01*
X161798000Y-103480764D01*
X161634673Y-103236328D01*
X161126927Y-102897063D01*
X160679182Y-102808001D01*
X160376818Y-102808001D01*
X159929073Y-102897063D01*
X159421327Y-103236328D01*
X159258000Y-103480764D01*
X159094673Y-103236328D01*
X158586927Y-102897063D01*
X158139182Y-102808001D01*
X158058132Y-102808001D01*
X155418908Y-100168778D01*
X155455624Y-100113827D01*
X155810424Y-100500967D01*
X156353258Y-100754047D01*
X156591000Y-100633998D01*
X156591000Y-99390001D01*
X156571000Y-99390001D01*
X156571000Y-99136001D01*
X156591000Y-99136001D01*
X156591000Y-97892004D01*
X156845000Y-97892004D01*
X156845000Y-99136001D01*
X156865000Y-99136001D01*
X156865000Y-99390001D01*
X156845000Y-99390001D01*
X156845000Y-100633998D01*
X157082742Y-100754047D01*
X157625576Y-100500967D01*
X157980376Y-100113827D01*
X158151327Y-100369674D01*
X158659073Y-100708939D01*
X159106818Y-100798001D01*
X159409182Y-100798001D01*
X159856927Y-100708939D01*
X160364673Y-100369674D01*
X160528000Y-100125238D01*
X160691327Y-100369674D01*
X161199073Y-100708939D01*
X161646818Y-100798001D01*
X161949182Y-100798001D01*
X162396927Y-100708939D01*
X162904673Y-100369674D01*
X163068000Y-100125238D01*
X163231327Y-100369674D01*
X163739073Y-100708939D01*
X164186818Y-100798001D01*
X164489182Y-100798001D01*
X164936927Y-100708939D01*
X165444673Y-100369674D01*
X165783938Y-99861928D01*
X165903072Y-99263001D01*
X165783938Y-98664074D01*
X165444673Y-98156328D01*
X164936927Y-97817063D01*
X164489182Y-97728001D01*
X164186818Y-97728001D01*
X163739073Y-97817063D01*
X163231327Y-98156328D01*
X163068000Y-98400764D01*
X162904673Y-98156328D01*
X162396927Y-97817063D01*
X161949182Y-97728001D01*
X161646818Y-97728001D01*
X161199073Y-97817063D01*
X160691327Y-98156328D01*
X160528000Y-98400764D01*
X160364673Y-98156328D01*
X159856927Y-97817063D01*
X159409182Y-97728001D01*
X159106818Y-97728001D01*
X158659073Y-97817063D01*
X158151327Y-98156328D01*
X157980376Y-98412175D01*
X157625576Y-98025035D01*
X157082742Y-97771955D01*
X156845000Y-97892004D01*
X156591000Y-97892004D01*
X156353258Y-97771955D01*
X155810424Y-98025035D01*
X155455624Y-98412175D01*
X155313000Y-98198722D01*
X155313000Y-95407807D01*
X168391797Y-95407807D01*
X168685508Y-96060776D01*
X169206742Y-96551642D01*
X169768195Y-96784195D01*
X170053000Y-96667432D01*
X170053000Y-95123000D01*
X170307000Y-95123000D01*
X170307000Y-96667432D01*
X170591805Y-96784195D01*
X171153258Y-96551642D01*
X171674492Y-96060776D01*
X171968203Y-95407807D01*
X171851858Y-95123000D01*
X170307000Y-95123000D01*
X170053000Y-95123000D01*
X168508142Y-95123000D01*
X168391797Y-95407807D01*
X155313000Y-95407807D01*
X155313000Y-94584193D01*
X168391797Y-94584193D01*
X168508142Y-94869000D01*
X170053000Y-94869000D01*
X170053000Y-93324568D01*
X170307000Y-93324568D01*
X170307000Y-94869000D01*
X171851858Y-94869000D01*
X171968203Y-94584193D01*
X171674492Y-93931224D01*
X171153258Y-93440358D01*
X170591805Y-93207805D01*
X170307000Y-93324568D01*
X170053000Y-93324568D01*
X169768195Y-93207805D01*
X169206742Y-93440358D01*
X168685508Y-93931224D01*
X168391797Y-94584193D01*
X155313000Y-94584193D01*
X155313000Y-93642299D01*
X155372157Y-93553765D01*
X155392739Y-93450292D01*
X155697076Y-93727645D01*
X156107110Y-93897476D01*
X156337000Y-93776155D01*
X156337000Y-92583000D01*
X156591000Y-92583000D01*
X156591000Y-93776155D01*
X156820890Y-93897476D01*
X157230924Y-93727645D01*
X157659183Y-93337358D01*
X157905486Y-92812892D01*
X157784819Y-92583000D01*
X156591000Y-92583000D01*
X156337000Y-92583000D01*
X156317000Y-92583000D01*
X156317000Y-92329000D01*
X156337000Y-92329000D01*
X156337000Y-91135845D01*
X156591000Y-91135845D01*
X156591000Y-92329000D01*
X157784819Y-92329000D01*
X157905486Y-92099108D01*
X157659183Y-91574642D01*
X157230924Y-91184355D01*
X156820890Y-91014524D01*
X156591000Y-91135845D01*
X156337000Y-91135845D01*
X156107110Y-91014524D01*
X155697076Y-91184355D01*
X155392739Y-91461708D01*
X155372157Y-91358235D01*
X155231809Y-91148191D01*
X155021765Y-91007843D01*
X154774000Y-90958560D01*
X153074000Y-90958560D01*
X152826235Y-91007843D01*
X152616191Y-91148191D01*
X152475843Y-91358235D01*
X152426560Y-91606000D01*
X152426560Y-93306000D01*
X152475843Y-93553765D01*
X152616191Y-93763809D01*
X152826235Y-93904157D01*
X153043001Y-93947274D01*
X153043000Y-98128001D01*
X152702279Y-98128001D01*
X152236927Y-97817063D01*
X151789182Y-97728001D01*
X151486818Y-97728001D01*
X151039073Y-97817063D01*
X150531327Y-98156328D01*
X150368000Y-98400764D01*
X150204673Y-98156328D01*
X149696927Y-97817063D01*
X149249182Y-97728001D01*
X148946818Y-97728001D01*
X148499073Y-97817063D01*
X148337534Y-97925000D01*
X145695277Y-97925000D01*
X145579809Y-97752191D01*
X145369765Y-97611843D01*
X145122000Y-97562560D01*
X143422000Y-97562560D01*
X143174235Y-97611843D01*
X142964191Y-97752191D01*
X142823843Y-97962235D01*
X142774560Y-98210000D01*
X142774560Y-99910000D01*
X142823843Y-100157765D01*
X142964191Y-100367809D01*
X143174235Y-100508157D01*
X143219619Y-100517184D01*
X143201375Y-100529375D01*
X142873161Y-101020582D01*
X142757908Y-101600000D01*
X142873161Y-102179418D01*
X143201375Y-102670625D01*
X143692582Y-102998839D01*
X144125744Y-103085000D01*
X144418256Y-103085000D01*
X144851418Y-102998839D01*
X145246281Y-102735000D01*
X148427659Y-102735000D01*
X148488220Y-102795561D01*
X146928000Y-102795561D01*
X146680235Y-102844844D01*
X146470191Y-102985192D01*
X146329843Y-103195236D01*
X146327304Y-103208001D01*
X141389133Y-103208001D01*
X141027000Y-102845868D01*
X141027000Y-102250996D01*
X140747638Y-101576556D01*
X140231444Y-101060362D01*
X139557004Y-100781000D01*
X138826996Y-100781000D01*
X138152556Y-101060362D01*
X137636362Y-101576556D01*
X137357000Y-102250996D01*
X137357000Y-102981004D01*
X137636362Y-103655444D01*
X138152556Y-104171638D01*
X138826996Y-104451000D01*
X139421868Y-104451000D01*
X140037390Y-105066522D01*
X140100712Y-105161290D01*
X140476146Y-105412147D01*
X140726775Y-105462000D01*
X136346000Y-105462000D01*
X136346000Y-95407807D01*
X137403797Y-95407807D01*
X137697508Y-96060776D01*
X138218742Y-96551642D01*
X138780195Y-96784195D01*
X139065000Y-96667432D01*
X139065000Y-95123000D01*
X139319000Y-95123000D01*
X139319000Y-96667432D01*
X139603805Y-96784195D01*
X140165258Y-96551642D01*
X140686492Y-96060776D01*
X140980203Y-95407807D01*
X140863858Y-95123000D01*
X139319000Y-95123000D01*
X139065000Y-95123000D01*
X137520142Y-95123000D01*
X137403797Y-95407807D01*
X136346000Y-95407807D01*
X136346000Y-94584193D01*
X137403797Y-94584193D01*
X137520142Y-94869000D01*
X139065000Y-94869000D01*
X139065000Y-93324568D01*
X139319000Y-93324568D01*
X139319000Y-94869000D01*
X140863858Y-94869000D01*
X140980203Y-94584193D01*
X140686492Y-93931224D01*
X140165258Y-93440358D01*
X139603805Y-93207805D01*
X139319000Y-93324568D01*
X139065000Y-93324568D01*
X138780195Y-93207805D01*
X138218742Y-93440358D01*
X137697508Y-93931224D01*
X137403797Y-94584193D01*
X136346000Y-94584193D01*
X136346000Y-89610000D01*
X173026001Y-89610000D01*
X173026000Y-105462000D01*
X173026000Y-105462000D01*
G37*
X173026000Y-105462000D02*
X168645225Y-105462000D01*
X168895854Y-105412147D01*
X169271288Y-105161290D01*
X169334612Y-105066519D01*
X169950131Y-104451000D01*
X170545004Y-104451000D01*
X171219444Y-104171638D01*
X171735638Y-103655444D01*
X172015000Y-102981004D01*
X172015000Y-102250996D01*
X171735638Y-101576556D01*
X171219444Y-101060362D01*
X170545004Y-100781000D01*
X169814996Y-100781000D01*
X169140556Y-101060362D01*
X168624362Y-101576556D01*
X168345000Y-102250996D01*
X168345000Y-102845869D01*
X167982868Y-103208001D01*
X166672279Y-103208001D01*
X166206927Y-102897063D01*
X165759182Y-102808001D01*
X165456818Y-102808001D01*
X165009073Y-102897063D01*
X164501327Y-103236328D01*
X164338000Y-103480764D01*
X164174673Y-103236328D01*
X163666927Y-102897063D01*
X163219182Y-102808001D01*
X162916818Y-102808001D01*
X162469073Y-102897063D01*
X161961327Y-103236328D01*
X161798000Y-103480764D01*
X161634673Y-103236328D01*
X161126927Y-102897063D01*
X160679182Y-102808001D01*
X160376818Y-102808001D01*
X159929073Y-102897063D01*
X159421327Y-103236328D01*
X159258000Y-103480764D01*
X159094673Y-103236328D01*
X158586927Y-102897063D01*
X158139182Y-102808001D01*
X158058132Y-102808001D01*
X155418908Y-100168778D01*
X155455624Y-100113827D01*
X155810424Y-100500967D01*
X156353258Y-100754047D01*
X156591000Y-100633998D01*
X156591000Y-99390001D01*
X156571000Y-99390001D01*
X156571000Y-99136001D01*
X156591000Y-99136001D01*
X156591000Y-97892004D01*
X156845000Y-97892004D01*
X156845000Y-99136001D01*
X156865000Y-99136001D01*
X156865000Y-99390001D01*
X156845000Y-99390001D01*
X156845000Y-100633998D01*
X157082742Y-100754047D01*
X157625576Y-100500967D01*
X157980376Y-100113827D01*
X158151327Y-100369674D01*
X158659073Y-100708939D01*
X159106818Y-100798001D01*
X159409182Y-100798001D01*
X159856927Y-100708939D01*
X160364673Y-100369674D01*
X160528000Y-100125238D01*
X160691327Y-100369674D01*
X161199073Y-100708939D01*
X161646818Y-100798001D01*
X161949182Y-100798001D01*
X162396927Y-100708939D01*
X162904673Y-100369674D01*
X163068000Y-100125238D01*
X163231327Y-100369674D01*
X163739073Y-100708939D01*
X164186818Y-100798001D01*
X164489182Y-100798001D01*
X164936927Y-100708939D01*
X165444673Y-100369674D01*
X165783938Y-99861928D01*
X165903072Y-99263001D01*
X165783938Y-98664074D01*
X165444673Y-98156328D01*
X164936927Y-97817063D01*
X164489182Y-97728001D01*
X164186818Y-97728001D01*
X163739073Y-97817063D01*
X163231327Y-98156328D01*
X163068000Y-98400764D01*
X162904673Y-98156328D01*
X162396927Y-97817063D01*
X161949182Y-97728001D01*
X161646818Y-97728001D01*
X161199073Y-97817063D01*
X160691327Y-98156328D01*
X160528000Y-98400764D01*
X160364673Y-98156328D01*
X159856927Y-97817063D01*
X159409182Y-97728001D01*
X159106818Y-97728001D01*
X158659073Y-97817063D01*
X158151327Y-98156328D01*
X157980376Y-98412175D01*
X157625576Y-98025035D01*
X157082742Y-97771955D01*
X156845000Y-97892004D01*
X156591000Y-97892004D01*
X156353258Y-97771955D01*
X155810424Y-98025035D01*
X155455624Y-98412175D01*
X155313000Y-98198722D01*
X155313000Y-95407807D01*
X168391797Y-95407807D01*
X168685508Y-96060776D01*
X169206742Y-96551642D01*
X169768195Y-96784195D01*
X170053000Y-96667432D01*
X170053000Y-95123000D01*
X170307000Y-95123000D01*
X170307000Y-96667432D01*
X170591805Y-96784195D01*
X171153258Y-96551642D01*
X171674492Y-96060776D01*
X171968203Y-95407807D01*
X171851858Y-95123000D01*
X170307000Y-95123000D01*
X170053000Y-95123000D01*
X168508142Y-95123000D01*
X168391797Y-95407807D01*
X155313000Y-95407807D01*
X155313000Y-94584193D01*
X168391797Y-94584193D01*
X168508142Y-94869000D01*
X170053000Y-94869000D01*
X170053000Y-93324568D01*
X170307000Y-93324568D01*
X170307000Y-94869000D01*
X171851858Y-94869000D01*
X171968203Y-94584193D01*
X171674492Y-93931224D01*
X171153258Y-93440358D01*
X170591805Y-93207805D01*
X170307000Y-93324568D01*
X170053000Y-93324568D01*
X169768195Y-93207805D01*
X169206742Y-93440358D01*
X168685508Y-93931224D01*
X168391797Y-94584193D01*
X155313000Y-94584193D01*
X155313000Y-93642299D01*
X155372157Y-93553765D01*
X155392739Y-93450292D01*
X155697076Y-93727645D01*
X156107110Y-93897476D01*
X156337000Y-93776155D01*
X156337000Y-92583000D01*
X156591000Y-92583000D01*
X156591000Y-93776155D01*
X156820890Y-93897476D01*
X157230924Y-93727645D01*
X157659183Y-93337358D01*
X157905486Y-92812892D01*
X157784819Y-92583000D01*
X156591000Y-92583000D01*
X156337000Y-92583000D01*
X156317000Y-92583000D01*
X156317000Y-92329000D01*
X156337000Y-92329000D01*
X156337000Y-91135845D01*
X156591000Y-91135845D01*
X156591000Y-92329000D01*
X157784819Y-92329000D01*
X157905486Y-92099108D01*
X157659183Y-91574642D01*
X157230924Y-91184355D01*
X156820890Y-91014524D01*
X156591000Y-91135845D01*
X156337000Y-91135845D01*
X156107110Y-91014524D01*
X155697076Y-91184355D01*
X155392739Y-91461708D01*
X155372157Y-91358235D01*
X155231809Y-91148191D01*
X155021765Y-91007843D01*
X154774000Y-90958560D01*
X153074000Y-90958560D01*
X152826235Y-91007843D01*
X152616191Y-91148191D01*
X152475843Y-91358235D01*
X152426560Y-91606000D01*
X152426560Y-93306000D01*
X152475843Y-93553765D01*
X152616191Y-93763809D01*
X152826235Y-93904157D01*
X153043001Y-93947274D01*
X153043000Y-98128001D01*
X152702279Y-98128001D01*
X152236927Y-97817063D01*
X151789182Y-97728001D01*
X151486818Y-97728001D01*
X151039073Y-97817063D01*
X150531327Y-98156328D01*
X150368000Y-98400764D01*
X150204673Y-98156328D01*
X149696927Y-97817063D01*
X149249182Y-97728001D01*
X148946818Y-97728001D01*
X148499073Y-97817063D01*
X148337534Y-97925000D01*
X145695277Y-97925000D01*
X145579809Y-97752191D01*
X145369765Y-97611843D01*
X145122000Y-97562560D01*
X143422000Y-97562560D01*
X143174235Y-97611843D01*
X142964191Y-97752191D01*
X142823843Y-97962235D01*
X142774560Y-98210000D01*
X142774560Y-99910000D01*
X142823843Y-100157765D01*
X142964191Y-100367809D01*
X143174235Y-100508157D01*
X143219619Y-100517184D01*
X143201375Y-100529375D01*
X142873161Y-101020582D01*
X142757908Y-101600000D01*
X142873161Y-102179418D01*
X143201375Y-102670625D01*
X143692582Y-102998839D01*
X144125744Y-103085000D01*
X144418256Y-103085000D01*
X144851418Y-102998839D01*
X145246281Y-102735000D01*
X148427659Y-102735000D01*
X148488220Y-102795561D01*
X146928000Y-102795561D01*
X146680235Y-102844844D01*
X146470191Y-102985192D01*
X146329843Y-103195236D01*
X146327304Y-103208001D01*
X141389133Y-103208001D01*
X141027000Y-102845868D01*
X141027000Y-102250996D01*
X140747638Y-101576556D01*
X140231444Y-101060362D01*
X139557004Y-100781000D01*
X138826996Y-100781000D01*
X138152556Y-101060362D01*
X137636362Y-101576556D01*
X137357000Y-102250996D01*
X137357000Y-102981004D01*
X137636362Y-103655444D01*
X138152556Y-104171638D01*
X138826996Y-104451000D01*
X139421868Y-104451000D01*
X140037390Y-105066522D01*
X140100712Y-105161290D01*
X140476146Y-105412147D01*
X140726775Y-105462000D01*
X136346000Y-105462000D01*
X136346000Y-95407807D01*
X137403797Y-95407807D01*
X137697508Y-96060776D01*
X138218742Y-96551642D01*
X138780195Y-96784195D01*
X139065000Y-96667432D01*
X139065000Y-95123000D01*
X139319000Y-95123000D01*
X139319000Y-96667432D01*
X139603805Y-96784195D01*
X140165258Y-96551642D01*
X140686492Y-96060776D01*
X140980203Y-95407807D01*
X140863858Y-95123000D01*
X139319000Y-95123000D01*
X139065000Y-95123000D01*
X137520142Y-95123000D01*
X137403797Y-95407807D01*
X136346000Y-95407807D01*
X136346000Y-94584193D01*
X137403797Y-94584193D01*
X137520142Y-94869000D01*
X139065000Y-94869000D01*
X139065000Y-93324568D01*
X139319000Y-93324568D01*
X139319000Y-94869000D01*
X140863858Y-94869000D01*
X140980203Y-94584193D01*
X140686492Y-93931224D01*
X140165258Y-93440358D01*
X139603805Y-93207805D01*
X139319000Y-93324568D01*
X139065000Y-93324568D01*
X138780195Y-93207805D01*
X138218742Y-93440358D01*
X137697508Y-93931224D01*
X137403797Y-94584193D01*
X136346000Y-94584193D01*
X136346000Y-89610000D01*
X173026001Y-89610000D01*
X173026000Y-105462000D01*
G04 #@! TD*
M02*
