<?xml version="1.0" standalone="no"?>
 <!DOCTYPE svg PUBLIC "-//W3C//DTD SVG 1.1//EN" 
 "http://www.w3.org/Graphics/SVG/1.1/DTD/svg11.dtd"> 
<svg xmlns="http://www.w3.org/2000/svg" version="1.1" 
    width="29.7002cm" height="21.0007cm" viewBox="0 0 116930 82680 ">
<title>SVG Picture created as L298N-F.Cu.svg date 2021/10/12 10:40:50 </title>
  <desc>Picture generated by PCBNEW </desc>
<g style="fill:#000000; fill-opacity:1;stroke:#000000; stroke-opacity:1;
stroke-linecap:round; stroke-linejoin:round; "
 transform="translate(0 0) scale(1 1)">
</g>
<g style="fill:#000000; fill-opacity:0.0; 
stroke:#000000; stroke-width:-0.000393701; stroke-opacity:1; 
stroke-linecap:round; stroke-linejoin:round;">
</g>
<g style="fill:#000000; fill-opacity:0.0; 
stroke:#000000; stroke-width:944.882; stroke-opacity:1; 
stroke-linecap:round; stroke-linejoin:round;">
<path d="M67000 37400
L67000 37400
" />
</g>
<g style="fill:#000000; fill-opacity:1.0; 
stroke:#000000; stroke-width:0; stroke-opacity:1; 
stroke-linecap:round; stroke-linejoin:round;">
<circle cx="67000" cy="40400" r="472.441" /> 
</g>
<g style="fill:#000000; fill-opacity:1.0; 
stroke:#000000; stroke-width:39.3701; stroke-opacity:1; 
stroke-linecap:round; stroke-linejoin:round;">
</g>
<g style="fill:#000000; fill-opacity:1.0; 
stroke:#000000; stroke-width:0; stroke-opacity:1; 
stroke-linecap:round; stroke-linejoin:round;">
<polyline style="fill-rule:evenodd;"
points="60934,36734
60265,36734
60265,36065
60934,36065
60934,36734
" /> 
</g>
<g style="fill:#000000; fill-opacity:1.0; 
stroke:#000000; stroke-width:669.291; stroke-opacity:1; 
stroke-linecap:round; stroke-linejoin:round;">
</g>
<g style="fill:#000000; fill-opacity:0.0; 
stroke:#000000; stroke-width:669.291; stroke-opacity:1; 
stroke-linecap:round; stroke-linejoin:round;">
<path d="M61600 36400
L61600 36400
" />
</g>
<g style="fill:#000000; fill-opacity:0.0; 
stroke:#000000; stroke-width:0; stroke-opacity:1; 
stroke-linecap:round; stroke-linejoin:round;">
</g>
<g style="fill:#000000; fill-opacity:1.0; 
stroke:#000000; stroke-width:0; stroke-opacity:1; 
stroke-linecap:round; stroke-linejoin:round;">
<polyline style="fill-rule:evenodd;"
points="56465,39334
56465,38665
57134,38665
57134,39334
56465,39334
" /> 
</g>
<g style="fill:#000000; fill-opacity:1.0; 
stroke:#000000; stroke-width:669.291; stroke-opacity:1; 
stroke-linecap:round; stroke-linejoin:round;">
</g>
<g style="fill:#000000; fill-opacity:0.0; 
stroke:#000000; stroke-width:669.291; stroke-opacity:1; 
stroke-linecap:round; stroke-linejoin:round;">
<path d="M56800 40000
L56800 40000
" />
</g>
<g style="fill:#000000; fill-opacity:1.0; 
stroke:#000000; stroke-width:0; stroke-opacity:1; 
stroke-linecap:round; stroke-linejoin:round;">
<circle cx="54800" cy="40400" r="472.441" /> 
</g>
<g style="fill:#000000; fill-opacity:1.0; 
stroke:#000000; stroke-width:39.3701; stroke-opacity:1; 
stroke-linecap:round; stroke-linejoin:round;">
</g>
<g style="fill:#000000; fill-opacity:1.0; 
stroke:#000000; stroke-width:944.882; stroke-opacity:1; 
stroke-linecap:round; stroke-linejoin:round;">
</g>
<g style="fill:#000000; fill-opacity:0.0; 
stroke:#000000; stroke-width:944.882; stroke-opacity:1; 
stroke-linecap:round; stroke-linejoin:round;">
<path d="M54800 37400
L54800 37400
" />
</g>
<g style="fill:#000000; fill-opacity:0.0; 
stroke:#000000; stroke-width:0; stroke-opacity:1; 
stroke-linecap:round; stroke-linejoin:round;">
</g>
<g style="fill:#000000; fill-opacity:1.0; 
stroke:#000000; stroke-width:0; stroke-opacity:1; 
stroke-linecap:round; stroke-linejoin:round;">
<polyline style="fill-rule:evenodd;"
points="57845,41434
57845,40725
58554,40725
58554,41434
57845,41434
" /> 
</g>
<g style="fill:#000000; fill-opacity:1.0; 
stroke:#000000; stroke-width:708.661; stroke-opacity:1; 
stroke-linecap:round; stroke-linejoin:round;">
</g>
<g style="fill:#000000; fill-opacity:0.0; 
stroke:#000000; stroke-width:708.661; stroke-opacity:1; 
stroke-linecap:round; stroke-linejoin:round;">
<path d="M58700 39079
L58700 39079
" />
<path d="M59200 41079
L59200 41079
" />
<path d="M59700 39079
L59700 39079
" />
<path d="M60200 41079
L60200 41079
" />
<path d="M60700 39079
L60700 39079
" />
<path d="M61200 41079
L61200 41079
" />
<path d="M61700 39079
L61700 39079
" />
<path d="M62200 41079
L62200 41079
" />
<path d="M62700 39079
L62700 39079
" />
<path d="M63200 41079
L63200 41079
" />
<path d="M63700 39079
L63700 39079
" />
<path d="M64200 41079
L64200 41079
" />
<path d="M64700 39079
L64700 39079
" />
<path d="M65200 41079
L65200 41079
" />
</g>
<g style="fill:#000000; fill-opacity:0.0; 
stroke:#000000; stroke-width:393.701; stroke-opacity:1; 
stroke-linecap:round; stroke-linejoin:round;">
<path d="M55479 41079
L54800 40400
" />
<path d="M58200 41079
L55479 41079
" />
<path d="M58620 39000
L58700 39079
" />
<path d="M56800 39000
L58620 39000
" />
<path d="M59200 40578
L59200 41079
" />
<path d="M58621 40000
L59200 40578
" />
<path d="M56800 40000
L58621 40000
" />
<path d="M62200 41079
L60800 39679
" />
<path d="M60700 39581
L60700 39079
" />
<path d="M60798 39679
L60700 39581
" />
<path d="M60800 39679
L60798 39679
" />
<path d="M59700 39079
L60700 39079
" />
<path d="M60700 36500
L60600 36400
" />
<path d="M60700 39079
L60700 36500
" />
<path d="M61700 36500
L61600 36400
" />
<path d="M61700 39079
L61700 36500
" />
<path d="M62600 37400
L61600 36400
" />
<path d="M67000 37400
L62600 37400
" />
<path d="M61600 35926
L61600 36400
" />
<path d="M61073 35400
L61600 35926
" />
<path d="M56800 35400
L61073 35400
" />
<path d="M54800 37400
L56800 35400
" />
<path d="M66320 41079
L67000 40400
" />
<path d="M65200 41079
L66320 41079
" />
</g> 
</svg>
