M48
;DRILL file {KiCad (5.0.0)} date 10/13/21 13:43:01
;FORMAT={-:-/ absolute / metric / decimal}
FMAT,2
METRIC,TZ
T1C1.000
T2C1.200
%
G90
G05
M71
T1
X147.828Y-104.343
X149.098Y-99.263
X150.368Y-104.343
X151.638Y-99.263
X152.908Y-104.343
X154.178Y-99.263
X155.448Y-104.343
X156.718Y-99.263
X157.988Y-104.343
X159.258Y-99.263
X160.528Y-104.343
X161.798Y-99.263
X163.068Y-104.343
X164.338Y-99.263
X165.608Y-104.343
X153.924Y-92.456
X156.464Y-92.456
X152.908Y-107.696
X155.448Y-107.696
X144.272Y-99.06
X144.272Y-101.6
T2
X170.18Y-94.996
X170.18Y-102.616
X139.192Y-94.996
X139.192Y-102.616
T0
M30
