<?xml version="1.0" encoding="UTF-8" standalone="no"?>
<svg
   version="1.1"
   width="29.7002cm"
   height="21.0007cm"
   viewBox="0 0 116930 82680 "
   id="svg1085"
   sodipodi:docname="L298N-F.Cu.svg"
   inkscape:version="1.1.1 (3bf5ae0d25, 2021-09-20)"
   xmlns:inkscape="http://www.inkscape.org/namespaces/inkscape"
   xmlns:sodipodi="http://sodipodi.sourceforge.net/DTD/sodipodi-0.dtd"
   xmlns="http://www.w3.org/2000/svg"
   xmlns:svg="http://www.w3.org/2000/svg">
  <defs
     id="defs1089" />
  <sodipodi:namedview
     id="namedview1087"
     pagecolor="#ffffff"
     bordercolor="#666666"
     borderopacity="1.0"
     inkscape:pageshadow="2"
     inkscape:pageopacity="0.0"
     inkscape:pagecheckerboard="0"
     inkscape:document-units="cm"
     showgrid="false"
     inkscape:zoom="0.71540879"
     inkscape:cx="577.99122"
     inkscape:cy="225.04616"
     inkscape:window-width="1920"
     inkscape:window-height="986"
     inkscape:window-x="-11"
     inkscape:window-y="-11"
     inkscape:window-maximized="1"
     inkscape:current-layer="svg1085" />
  <title
     id="title693">SVG Picture created as L298N-F.Cu.svg date 2021/10/13 12:57:39 </title>
  <desc
     id="desc695">Picture generated by PCBNEW </desc>
  <g
     style="fill:#000000; fill-opacity:1;stroke:#000000; stroke-opacity:1; stroke-linecap:round; stroke-linejoin:round; "
     transform="translate(0 0) scale(1 1)"
     id="g697" />
  <g
     style="fill:#000000; fill-opacity:0.0;  stroke:#000000; stroke-width:-0.000393701; stroke-opacity:1;  stroke-linecap:round; stroke-linejoin:round;"
     id="g699" />
  <g
     style="fill:#000000;fill-opacity:0;stroke:#000000;stroke-width:59.0551;stroke-linecap:round;stroke-linejoin:round;stroke-opacity:1"
     id="g777"
     transform="translate(-45283.006,-31741.785)">
    <path
       d="m 53367,35853 v -394 h -94 l -56,19 -38,37 -18,38 -19,75 v 56 l 19,75 18,38 38,37 56,19 h 94"
       id="path701" />
    <path
       d="m 52804,35590 v 263"
       id="path703" />
    <path
       d="m 52973,35590 v 207 l -19,37 -37,19 h -56 l -38,-19 -19,-19"
       id="path705" />
    <path
       d="m 52448,35853 v -394"
       id="path707" />
    <path
       d="m 52448,35834 38,19 h 75 l 37,-19 19,-19 19,-37 v -113 l -19,-37 -19,-19 -37,-19 h -75 l -38,19"
       id="path709" />
    <path
       d="m 52111,35834 37,19 h 75 l 38,-19 18,-37 v -150 l -18,-38 -38,-19 h -75 l -37,19 -19,38 v 37 l 187,38"
       id="path711" />
    <path
       d="m 51923,35853 v -394"
       id="path713" />
    <path
       d="m 51886,35703 -113,150"
       id="path715" />
    <path
       d="m 51773,35590 150,150"
       id="path717" />
    <path
       d="m 51117,35459 h 188 l 18,188 -18,-19 -38,-19 h -94 l -37,19 -19,19 -19,37 v 94 l 19,37 19,19 37,19 h 94 l 38,-19 18,-19"
       id="path719" />
    <path
       d="m 50948,35740 h -187"
       id="path721" />
    <path
       d="m 50986,35853 -131,-394 -132,394"
       id="path723" />
    <path
       d="m 50592,35853 v -394"
       id="path725" />
    <path
       d="m 50592,35647 h -225"
       id="path727" />
    <path
       d="m 50367,35853 v -394"
       id="path729" />
    <path
       d="m 50180,35647 h -132"
       id="path731" />
    <path
       d="m 49992,35853 h 188 v -394 h -188"
       id="path733" />
    <path
       d="m 49636,35853 h 187 v -394"
       id="path735" />
    <path
       d="m 52879,36502 v -393"
       id="path737" />
    <path
       d="m 52879,36296 h -225"
       id="path739" />
    <path
       d="m 52654,36502 v -393"
       id="path741" />
    <path
       d="m 52467,36352 h -300"
       id="path743" />
    <path
       d="m 51848,36296 -56,19 -19,19 -19,37 v 56 l 19,38 19,19 37,18 h 150 v -393 h -131 l -37,18 -19,19 -19,38 v 37 l 19,38 19,18 37,19 h 131"
       id="path745" />
    <path
       d="m 51586,36502 v -262"
       id="path747" />
    <path
       d="m 51586,36315 -19,-38 -19,-18 -37,-19 h -38"
       id="path749" />
    <path
       d="m 51173,36240 v 262"
       id="path751" />
    <path
       d="m 51342,36240 v 206 l -19,38 -37,18 h -56 l -38,-18 -19,-19"
       id="path753" />
    <path
       d="m 51323,36109 -18,18 18,19 19,-19 -19,-18 v 37"
       id="path755" />
    <path
       d="m 51173,36109 -18,18 18,19 19,-19 -19,-18 v 37"
       id="path757" />
    <path
       d="m 50817,36484 38,18 h 75 l 37,-18 19,-19 19,-38 v -112 l -19,-38 -19,-18 -37,-19 h -75 l -38,19"
       id="path759" />
    <path
       d="m 50648,36502 v -393"
       id="path761" />
    <path
       d="m 50611,36352 -113,150"
       id="path763" />
    <path
       d="m 50498,36240 150,150"
       id="path765" />
    <path
       d="m 50180,36484 37,18 h 75 l 38,-18 18,-38 v -150 l -18,-37 -38,-19 h -75 l -37,19 -19,37 v 38 l 187,37"
       id="path767" />
    <path
       d="m 63530,35000 v 8400"
       id="path769" />
    <path
       d="M 48530,35000 H 63530"
       id="path771" />
    <path
       d="M 48530,43400 V 35000"
       id="path773" />
    <path
       d="M 63530,43400 H 48530"
       id="path775" />
  </g>
  <g
     style="fill:#000000;fill-opacity:0;stroke:#000000;stroke-width:944.882;stroke-linecap:round;stroke-linejoin:round;stroke-opacity:1"
     id="g781"
     transform="translate(-45283.006,-31741.785)">
    <path
       d="m 49930,37400 v 0"
       id="path779" />
  </g>
  <g
     style="fill:#000000;fill-opacity:1;stroke:#000000;stroke-width:0;stroke-linecap:round;stroke-linejoin:round;stroke-opacity:1"
     id="g785"
     transform="translate(-45283.006,-31741.785)">
    <circle
       cx="49930"
       cy="40400"
       r="472.44101"
       id="circle783" />
  </g>
  <g
     style="fill:#000000; fill-opacity:1.0;  stroke:#000000; stroke-width:39.3701; stroke-opacity:1;  stroke-linecap:round; stroke-linejoin:round;"
     id="g787" />
  <g
     style="fill:#000000;fill-opacity:1;stroke:#000000;stroke-width:0;stroke-linecap:round;stroke-linejoin:round;stroke-opacity:1"
     id="g791"
     transform="translate(-45283.006,-31741.785)">
    <polyline
       style="fill-rule:evenodd"
       points="55995,36734 56664,36734 56664,36065 55995,36065 55995,36734 "
       id="polyline789" />
  </g>
  <g
     style="fill:#000000; fill-opacity:1.0;  stroke:#000000; stroke-width:669.291; stroke-opacity:1;  stroke-linecap:round; stroke-linejoin:round;"
     id="g793" />
  <g
     style="fill:#000000;fill-opacity:0;stroke:#000000;stroke-width:669.291;stroke-linecap:round;stroke-linejoin:round;stroke-opacity:1"
     id="g797"
     transform="translate(-45283.006,-31741.785)">
    <path
       d="m 55330,36400 v 0"
       id="path795" />
  </g>
  <g
     style="fill:#000000; fill-opacity:0.0;  stroke:#000000; stroke-width:0; stroke-opacity:1;  stroke-linecap:round; stroke-linejoin:round;"
     id="g799" />
  <g
     style="fill:#000000;fill-opacity:1;stroke:#000000;stroke-width:0;stroke-linecap:round;stroke-linejoin:round;stroke-opacity:1"
     id="g803"
     transform="translate(-45283.006,-31741.785)">
    <polyline
       style="fill-rule:evenodd"
       points="60464,39334 60464,38665 59795,38665 59795,39334 60464,39334 "
       id="polyline801" />
  </g>
  <g
     style="fill:#000000; fill-opacity:1.0;  stroke:#000000; stroke-width:669.291; stroke-opacity:1;  stroke-linecap:round; stroke-linejoin:round;"
     id="g805" />
  <g
     style="fill:#000000;fill-opacity:0;stroke:#000000;stroke-width:669.291;stroke-linecap:round;stroke-linejoin:round;stroke-opacity:1"
     id="g809"
     transform="translate(-45283.006,-31741.785)">
    <path
       d="m 60130,40000 v 0"
       id="path807" />
  </g>
  <g
     style="fill:#000000;fill-opacity:1;stroke:#000000;stroke-width:0;stroke-linecap:round;stroke-linejoin:round;stroke-opacity:1"
     id="g813"
     transform="translate(-45283.006,-31741.785)">
    <circle
       cx="62130"
       cy="40400"
       r="472.44101"
       id="circle811" />
  </g>
  <g
     style="fill:#000000; fill-opacity:1.0;  stroke:#000000; stroke-width:39.3701; stroke-opacity:1;  stroke-linecap:round; stroke-linejoin:round;"
     id="g815" />
  <g
     style="fill:#000000; fill-opacity:1.0;  stroke:#000000; stroke-width:944.882; stroke-opacity:1;  stroke-linecap:round; stroke-linejoin:round;"
     id="g817" />
  <g
     style="fill:#000000;fill-opacity:0;stroke:#000000;stroke-width:944.882;stroke-linecap:round;stroke-linejoin:round;stroke-opacity:1"
     id="g821"
     transform="translate(-45283.006,-31741.785)">
    <path
       d="m 62130,37400 v 0"
       id="path819" />
  </g>
  <g
     style="fill:#000000; fill-opacity:0.0;  stroke:#000000; stroke-width:0; stroke-opacity:1;  stroke-linecap:round; stroke-linejoin:round;"
     id="g823" />
  <g
     style="fill:#000000;fill-opacity:1;stroke:#000000;stroke-width:0;stroke-linecap:round;stroke-linejoin:round;stroke-opacity:1"
     id="g827"
     transform="translate(-45283.006,-31741.785)">
    <polyline
       style="fill-rule:evenodd"
       points="59084,41434 59084,40725 58375,40725 58375,41434 59084,41434 "
       id="polyline825" />
  </g>
  <g
     style="fill:#000000; fill-opacity:1.0;  stroke:#000000; stroke-width:708.661; stroke-opacity:1;  stroke-linecap:round; stroke-linejoin:round;"
     id="g829" />
  <g
     style="fill:#000000;fill-opacity:0;stroke:#000000;stroke-width:708.661;stroke-linecap:round;stroke-linejoin:round;stroke-opacity:1"
     id="g859"
     transform="translate(-45283.006,-31741.785)">
    <path
       d="m 58230,39079 v 0"
       id="path831" />
    <path
       d="m 57730,41079 v 0"
       id="path833" />
    <path
       d="m 57230,39079 v 0"
       id="path835" />
    <path
       d="m 56730,41079 v 0"
       id="path837" />
    <path
       d="m 56230,39079 v 0"
       id="path839" />
    <path
       d="m 55730,41079 v 0"
       id="path841" />
    <path
       d="m 55230,39079 v 0"
       id="path843" />
    <path
       d="m 54730,41079 v 0"
       id="path845" />
    <path
       d="m 54230,39079 v 0"
       id="path847" />
    <path
       d="m 53730,41079 v 0"
       id="path849" />
    <path
       d="m 53230,39079 v 0"
       id="path851" />
    <path
       d="m 52730,41079 v 0"
       id="path853" />
    <path
       d="m 52230,39079 v 0"
       id="path855" />
    <path
       d="m 51730,41079 v 0"
       id="path857" />
  </g>
  <g
     style="fill:#000000; fill-opacity:0.0;  stroke:#000000; stroke-width:0; stroke-opacity:1;  stroke-linecap:round; stroke-linejoin:round;"
     id="g861" />
  <g
     style="fill:#000000;fill-opacity:1;stroke:#000000;stroke-width:0;stroke-linecap:round;stroke-linejoin:round;stroke-opacity:1"
     id="g865"
     transform="translate(-45283.006,-31741.785)">
    <polyline
       style="fill-rule:evenodd"
       points="56395,42734 57064,42734 57064,42065 56395,42065 56395,42734 "
       id="polyline863" />
  </g>
  <g
     style="fill:#000000; fill-opacity:1.0;  stroke:#000000; stroke-width:669.291; stroke-opacity:1;  stroke-linecap:round; stroke-linejoin:round;"
     id="g867" />
  <g
     style="fill:#000000;fill-opacity:0;stroke:#000000;stroke-width:669.291;stroke-linecap:round;stroke-linejoin:round;stroke-opacity:1"
     id="g871"
     transform="translate(-45283.006,-31741.785)">
    <path
       d="m 55730,42400 v 0"
       id="path869" />
  </g>
  <g
     style="fill:#000000;fill-opacity:0;stroke:#000000;stroke-width:393.701;stroke-linecap:round;stroke-linejoin:round;stroke-opacity:1"
     id="g925"
     transform="translate(-45283.006,-31741.785)">
    <path
       d="m 61450,41079 680,-679"
       id="path873" />
    <path
       d="m 58730,41079 h 2720"
       id="path875" />
    <path
       d="m 58309,39000 -79,79"
       id="path877" />
    <path
       d="M 60130,39000 H 58309"
       id="path879" />
    <path
       d="m 57730,40578 v 501"
       id="path881" />
    <path
       d="m 58308,40000 -578,578"
       id="path883" />
    <path
       d="M 60130,40000 H 58308"
       id="path885" />
    <path
       d="m 54730,41079 1400,-1400"
       id="path887" />
    <path
       d="m 56230,39581 v -502"
       id="path889" />
    <path
       d="m 56131,39679 99,-98"
       id="path891" />
    <path
       d="m 56130,39679 h 1"
       id="path893" />
    <path
       d="M 57230,39079 H 56230"
       id="path895" />
    <path
       d="m 56230,36500 100,-100"
       id="path897" />
    <path
       d="M 56230,39079 V 36500"
       id="path899" />
    <path
       d="m 55230,36500 100,-100"
       id="path901" />
    <path
       d="M 55230,39079 V 36500"
       id="path903" />
    <path
       d="m 54330,37400 1000,-1000"
       id="path905" />
    <path
       d="m 49930,37400 h 4400"
       id="path907" />
    <path
       d="m 55330,35926 v 474"
       id="path909" />
    <path
       d="m 55856,35400 -526,526"
       id="path911" />
    <path
       d="M 60130,35400 H 55856"
       id="path913" />
    <path
       d="M 62130,37400 60130,35400"
       id="path915" />
    <path
       d="m 50609,41079 -679,-679"
       id="path917" />
    <path
       d="M 51730,41079 H 50609"
       id="path919" />
    <path
       d="M 56730,42400 V 41079"
       id="path921" />
    <path
       d="M 55730,42400 V 41079"
       id="path923" />
  </g>
  <g
     style="fill:#000000;fill-opacity:1;stroke:#000000;stroke-width:100;stroke-linecap:round;stroke-linejoin:round;stroke-opacity:1"
     id="g929"
     transform="translate(-45283.006,-31741.785)">
    <polyline
       style="fill-rule:evenodd"
       points="53934,37119 50580,37119 50634,37237 50588,37350 49980,37350 49980,37342 49880,37342 49880,37350 49271,37350 49225,37237 49279,37119 49125,37119 49125,35473 49003,35473 49003,42926 55145,42926 54996,42703 54936,42400 54996,42096 55089,41957 55089,41799 55041,41831 54808,41877 54651,41877 54418,41831 54230,41705 54041,41831 53808,41877 53651,41877 53418,41831 53230,41705 53041,41831 52808,41877 52651,41877 52418,41831 52230,41705 52041,41831 51808,41877 51651,41877 51418,41831 51252,41720 50673,41720 50609,41733 50546,41720 50546,41720 50359,41683 50148,41541 50112,41488 49940,41316 49747,41316 49411,41176 49153,40918 49013,40582 49013,40217 49153,39881 49411,39623 49747,39483 50112,39483 50448,39623 50706,39881 50846,40217 50846,40410 50875,40439 51252,40439 51418,40328 51651,40281 51808,40281 52041,40328 52230,40454 52418,40328 52651,40281 52808,40281 53041,40328 53230,40454 53418,40328 53651,40281 53808,40281 54041,40328 54230,40454 54418,40328 54614,40289 55219,39684 55179,39684 55179,39619 55086,39666 54872,39567 54867,39561 54805,39655 54541,39831 54308,39877 54151,39877 53918,39831 53730,39705 53541,39831 53308,39877 53151,39877 52918,39831 52730,39705 52541,39831 52308,39877 52151,39877 51918,39831 51654,39655 51478,39391 51416,39079 51478,38768 51654,38504 51918,38328 52151,38281 52308,38281 52541,38328 52730,38454 52918,38328 53151,38281 53308,38281 53541,38328 53730,38454 53918,38328 54151,38281 54308,38281 54541,38328 54805,38504 54867,38597 54872,38592 55086,38492 55180,38540 55180,39029 55172,39029 55172,39129 55180,39129 55180,39137 55280,39137 55280,39129 55287,39129 55287,39029 55280,39029 55280,38540 55373,38492 55587,38592 55589,38594 55589,37562 50634,37562 50518,37819 50313,38012 50092,38104 49980,38058 49980,37450 49880,37450 49880,38058 49767,38104 49546,38012 49341,37819 49225,37562 49271,37450 49880,37450 49980,37450 50588,37450 50634,37562 55589,37562 55589,36925 55585,36919 55470,36967 55380,36919 55380,36450 55280,36450 55280,36919 55189,36967 55028,36900 54859,36746 54762,36540 54809,36450 55280,36450 55380,36450 55387,36450 55387,36350 55380,36350 55380,35880 55280,35880 55280,36350 54809,36350 54762,36259 54859,36053 55028,35899 55189,35832 55280,35880 55380,35880 55470,35832 55585,35880 55675,35745 55822,35647 55995,35612 56664,35612 56837,35647 56984,35745 57082,35892 57117,36065 57117,36734 57082,36907 56984,37054 56870,37130 56870,38360 56918,38328 57151,38281 57308,38281 57541,38328 57730,38454 57918,38328 58151,38281 58308,38281 58541,38328 58588,38359 59466,38359 59475,38345 59622,38247 59795,38212 60464,38212 60637,38247 60784,38345 60882,38492 60917,38665 60917,39334 60882,39507 60809,39616 60863,39696 60923,40000 60863,40303 60772,40439 61184,40439 61213,40410 61213,40217 61353,39881 61611,39623 61947,39483 62312,39483 62648,39623 62906,39881 63046,40217 63046,40582 62906,40918 62648,41176 62312,41316 62119,41316 61947,41488 61911,41541 61700,41683 61513,41720 61513,41720 61450,41733 61386,41720 59426,41720 59404,41754 59257,41852 59084,41886 58375,41886 58202,41852 58106,41788 58041,41831 57808,41877 57651,41877 57445,41837 57482,41892 57517,42065 57517,42734 57482,42907 57469,42926 63056,42926 63056,37562 62834,37562 62718,37819 62513,38012 62292,38104 62180,38058 62180,37450 62080,37450 62080,38058 61967,38104 61746,38012 61541,37819 61425,37562 61471,37450 62080,37450 62180,37450 62788,37450 62834,37562 63056,37562 63056,37237 62834,37237 62788,37350 62180,37350 62180,36741 62080,36741 62080,37350 61471,37350 61425,37237 61541,36980 61746,36787 61967,36695 62080,36741 62180,36741 62292,36695 62513,36787 62718,36980 62834,37237 63056,37237 63056,35473 53934,35473 53934,37119 "
       id="polyline927" />
  </g>
  <g
     style="fill:#FFFFFF; fill-opacity:1.0;  stroke:#FFFFFF; stroke-width:100; stroke-opacity:1;  stroke-linecap:round; stroke-linejoin:round;"
     id="g931" />
  <g
     style="fill:#ffffff;fill-opacity:1;stroke:#ffffff;stroke-width:0;stroke-linecap:round;stroke-linejoin:round;stroke-opacity:1"
     id="g935"
     transform="translate(-45283.006,-31741.785)">
    <circle
       cx="49930"
       cy="37400"
       r="68.897598"
       id="circle933" />
  </g>
  <g
     style="fill:#FFFFFF; fill-opacity:1.0;  stroke:#FFFFFF; stroke-width:39.3701; stroke-opacity:1;  stroke-linecap:round; stroke-linejoin:round;"
     id="g937" />
  <g
     style="fill:#ffffff;fill-opacity:1;stroke:#ffffff;stroke-width:0;stroke-linecap:round;stroke-linejoin:round;stroke-opacity:1"
     id="g941"
     transform="translate(-45283.006,-31741.785)">
    <circle
       cx="49930"
       cy="40400"
       r="68.897598"
       id="circle939" />
  </g>
  <g
     style="fill:#FFFFFF; fill-opacity:1.0;  stroke:#FFFFFF; stroke-width:39.3701; stroke-opacity:1;  stroke-linecap:round; stroke-linejoin:round;"
     id="g943" />
  <g
     style="fill:#ffffff;fill-opacity:1;stroke:#ffffff;stroke-width:0;stroke-linecap:round;stroke-linejoin:round;stroke-opacity:1"
     id="g947"
     transform="translate(-45283.006,-31741.785)">
    <circle
       cx="56330"
       cy="36400"
       r="68.897598"
       id="circle945" />
  </g>
  <g
     style="fill:#FFFFFF; fill-opacity:1.0;  stroke:#FFFFFF; stroke-width:39.3701; stroke-opacity:1;  stroke-linecap:round; stroke-linejoin:round;"
     id="g949" />
  <g
     style="fill:#ffffff;fill-opacity:1;stroke:#ffffff;stroke-width:0;stroke-linecap:round;stroke-linejoin:round;stroke-opacity:1"
     id="g953"
     transform="translate(-45283.006,-31741.785)">
    <circle
       cx="55330"
       cy="36400"
       r="68.897598"
       id="circle951" />
  </g>
  <g
     style="fill:#FFFFFF; fill-opacity:1.0;  stroke:#FFFFFF; stroke-width:39.3701; stroke-opacity:1;  stroke-linecap:round; stroke-linejoin:round;"
     id="g955" />
  <g
     style="fill:#ffffff;fill-opacity:1;stroke:#ffffff;stroke-width:0;stroke-linecap:round;stroke-linejoin:round;stroke-opacity:1"
     id="g959"
     transform="translate(-45283.006,-31741.785)">
    <circle
       cx="60130"
       cy="39000"
       r="68.897598"
       id="circle957" />
  </g>
  <g
     style="fill:#FFFFFF; fill-opacity:1.0;  stroke:#FFFFFF; stroke-width:39.3701; stroke-opacity:1;  stroke-linecap:round; stroke-linejoin:round;"
     id="g961" />
  <g
     style="fill:#ffffff;fill-opacity:1;stroke:#ffffff;stroke-width:0;stroke-linecap:round;stroke-linejoin:round;stroke-opacity:1"
     id="g965"
     transform="translate(-45283.006,-31741.785)">
    <circle
       cx="60130"
       cy="40000"
       r="68.897598"
       id="circle963" />
  </g>
  <g
     style="fill:#FFFFFF; fill-opacity:1.0;  stroke:#FFFFFF; stroke-width:39.3701; stroke-opacity:1;  stroke-linecap:round; stroke-linejoin:round;"
     id="g967" />
  <g
     style="fill:#ffffff;fill-opacity:1;stroke:#ffffff;stroke-width:0;stroke-linecap:round;stroke-linejoin:round;stroke-opacity:1"
     id="g971"
     transform="translate(-45283.006,-31741.785)">
    <circle
       cx="62130"
       cy="40400"
       r="68.897598"
       id="circle969" />
  </g>
  <g
     style="fill:#FFFFFF; fill-opacity:1.0;  stroke:#FFFFFF; stroke-width:39.3701; stroke-opacity:1;  stroke-linecap:round; stroke-linejoin:round;"
     id="g973" />
  <g
     style="fill:#ffffff;fill-opacity:1;stroke:#ffffff;stroke-width:0;stroke-linecap:round;stroke-linejoin:round;stroke-opacity:1"
     id="g977"
     transform="translate(-45283.006,-31741.785)">
    <circle
       cx="62130"
       cy="37400"
       r="68.897598"
       id="circle975" />
  </g>
  <g
     style="fill:#FFFFFF; fill-opacity:1.0;  stroke:#FFFFFF; stroke-width:39.3701; stroke-opacity:1;  stroke-linecap:round; stroke-linejoin:round;"
     id="g979" />
  <g
     style="fill:#ffffff;fill-opacity:1;stroke:#ffffff;stroke-width:0;stroke-linecap:round;stroke-linejoin:round;stroke-opacity:1"
     id="g983"
     transform="translate(-45283.006,-31741.785)">
    <circle
       cx="58730"
       cy="41079.898"
       r="68.897598"
       id="circle981" />
  </g>
  <g
     style="fill:#FFFFFF; fill-opacity:1.0;  stroke:#FFFFFF; stroke-width:39.3701; stroke-opacity:1;  stroke-linecap:round; stroke-linejoin:round;"
     id="g985" />
  <g
     style="fill:#ffffff;fill-opacity:1;stroke:#ffffff;stroke-width:0;stroke-linecap:round;stroke-linejoin:round;stroke-opacity:1"
     id="g989"
     transform="translate(-45283.006,-31741.785)">
    <circle
       cx="58230"
       cy="39079.898"
       r="68.897598"
       id="circle987" />
  </g>
  <g
     style="fill:#FFFFFF; fill-opacity:1.0;  stroke:#FFFFFF; stroke-width:39.3701; stroke-opacity:1;  stroke-linecap:round; stroke-linejoin:round;"
     id="g991" />
  <g
     style="fill:#ffffff;fill-opacity:1;stroke:#ffffff;stroke-width:0;stroke-linecap:round;stroke-linejoin:round;stroke-opacity:1"
     id="g995"
     transform="translate(-45283.006,-31741.785)">
    <circle
       cx="57730"
       cy="41079.898"
       r="68.897598"
       id="circle993" />
  </g>
  <g
     style="fill:#FFFFFF; fill-opacity:1.0;  stroke:#FFFFFF; stroke-width:39.3701; stroke-opacity:1;  stroke-linecap:round; stroke-linejoin:round;"
     id="g997" />
  <g
     style="fill:#ffffff;fill-opacity:1;stroke:#ffffff;stroke-width:0;stroke-linecap:round;stroke-linejoin:round;stroke-opacity:1"
     id="g1001"
     transform="translate(-45283.006,-31741.785)">
    <circle
       cx="57230"
       cy="39079.898"
       r="68.897598"
       id="circle999" />
  </g>
  <g
     style="fill:#FFFFFF; fill-opacity:1.0;  stroke:#FFFFFF; stroke-width:39.3701; stroke-opacity:1;  stroke-linecap:round; stroke-linejoin:round;"
     id="g1003" />
  <g
     style="fill:#ffffff;fill-opacity:1;stroke:#ffffff;stroke-width:0;stroke-linecap:round;stroke-linejoin:round;stroke-opacity:1"
     id="g1007"
     transform="translate(-45283.006,-31741.785)">
    <circle
       cx="56730"
       cy="41079.898"
       r="68.897598"
       id="circle1005" />
  </g>
  <g
     style="fill:#FFFFFF; fill-opacity:1.0;  stroke:#FFFFFF; stroke-width:39.3701; stroke-opacity:1;  stroke-linecap:round; stroke-linejoin:round;"
     id="g1009" />
  <g
     style="fill:#ffffff;fill-opacity:1;stroke:#ffffff;stroke-width:0;stroke-linecap:round;stroke-linejoin:round;stroke-opacity:1"
     id="g1013"
     transform="translate(-45283.006,-31741.785)">
    <circle
       cx="56230"
       cy="39079.898"
       r="68.897598"
       id="circle1011" />
  </g>
  <g
     style="fill:#FFFFFF; fill-opacity:1.0;  stroke:#FFFFFF; stroke-width:39.3701; stroke-opacity:1;  stroke-linecap:round; stroke-linejoin:round;"
     id="g1015" />
  <g
     style="fill:#ffffff;fill-opacity:1;stroke:#ffffff;stroke-width:0;stroke-linecap:round;stroke-linejoin:round;stroke-opacity:1"
     id="g1019"
     transform="translate(-45283.006,-31741.785)">
    <circle
       cx="55730"
       cy="41079.898"
       r="68.897598"
       id="circle1017" />
  </g>
  <g
     style="fill:#FFFFFF; fill-opacity:1.0;  stroke:#FFFFFF; stroke-width:39.3701; stroke-opacity:1;  stroke-linecap:round; stroke-linejoin:round;"
     id="g1021" />
  <g
     style="fill:#ffffff;fill-opacity:1;stroke:#ffffff;stroke-width:0;stroke-linecap:round;stroke-linejoin:round;stroke-opacity:1"
     id="g1025"
     transform="translate(-45283.006,-31741.785)">
    <circle
       cx="55230"
       cy="39079.898"
       r="68.897598"
       id="circle1023" />
  </g>
  <g
     style="fill:#FFFFFF; fill-opacity:1.0;  stroke:#FFFFFF; stroke-width:39.3701; stroke-opacity:1;  stroke-linecap:round; stroke-linejoin:round;"
     id="g1027" />
  <g
     style="fill:#ffffff;fill-opacity:1;stroke:#ffffff;stroke-width:0;stroke-linecap:round;stroke-linejoin:round;stroke-opacity:1"
     id="g1031"
     transform="translate(-45283.006,-31741.785)">
    <circle
       cx="54730"
       cy="41079.898"
       r="68.897598"
       id="circle1029" />
  </g>
  <g
     style="fill:#FFFFFF; fill-opacity:1.0;  stroke:#FFFFFF; stroke-width:39.3701; stroke-opacity:1;  stroke-linecap:round; stroke-linejoin:round;"
     id="g1033" />
  <g
     style="fill:#ffffff;fill-opacity:1;stroke:#ffffff;stroke-width:0;stroke-linecap:round;stroke-linejoin:round;stroke-opacity:1"
     id="g1037"
     transform="translate(-45283.006,-31741.785)">
    <circle
       cx="54230"
       cy="39079.898"
       r="68.897598"
       id="circle1035" />
  </g>
  <g
     style="fill:#FFFFFF; fill-opacity:1.0;  stroke:#FFFFFF; stroke-width:39.3701; stroke-opacity:1;  stroke-linecap:round; stroke-linejoin:round;"
     id="g1039" />
  <g
     style="fill:#ffffff;fill-opacity:1;stroke:#ffffff;stroke-width:0;stroke-linecap:round;stroke-linejoin:round;stroke-opacity:1"
     id="g1043"
     transform="translate(-45283.006,-31741.785)">
    <circle
       cx="53730"
       cy="41079.898"
       r="68.897598"
       id="circle1041" />
  </g>
  <g
     style="fill:#FFFFFF; fill-opacity:1.0;  stroke:#FFFFFF; stroke-width:39.3701; stroke-opacity:1;  stroke-linecap:round; stroke-linejoin:round;"
     id="g1045" />
  <g
     style="fill:#ffffff;fill-opacity:1;stroke:#ffffff;stroke-width:0;stroke-linecap:round;stroke-linejoin:round;stroke-opacity:1"
     id="g1049"
     transform="translate(-45283.006,-31741.785)">
    <circle
       cx="53230"
       cy="39079.898"
       r="68.897598"
       id="circle1047" />
  </g>
  <g
     style="fill:#FFFFFF; fill-opacity:1.0;  stroke:#FFFFFF; stroke-width:39.3701; stroke-opacity:1;  stroke-linecap:round; stroke-linejoin:round;"
     id="g1051" />
  <g
     style="fill:#ffffff;fill-opacity:1;stroke:#ffffff;stroke-width:0;stroke-linecap:round;stroke-linejoin:round;stroke-opacity:1"
     id="g1055"
     transform="translate(-45283.006,-31741.785)">
    <circle
       cx="52730"
       cy="41079.898"
       r="68.897598"
       id="circle1053" />
  </g>
  <g
     style="fill:#FFFFFF; fill-opacity:1.0;  stroke:#FFFFFF; stroke-width:39.3701; stroke-opacity:1;  stroke-linecap:round; stroke-linejoin:round;"
     id="g1057" />
  <g
     style="fill:#ffffff;fill-opacity:1;stroke:#ffffff;stroke-width:0;stroke-linecap:round;stroke-linejoin:round;stroke-opacity:1"
     id="g1061"
     transform="translate(-45283.006,-31741.785)">
    <circle
       cx="52230"
       cy="39079.898"
       r="68.897598"
       id="circle1059" />
  </g>
  <g
     style="fill:#FFFFFF; fill-opacity:1.0;  stroke:#FFFFFF; stroke-width:39.3701; stroke-opacity:1;  stroke-linecap:round; stroke-linejoin:round;"
     id="g1063" />
  <g
     style="fill:#ffffff;fill-opacity:1;stroke:#ffffff;stroke-width:0;stroke-linecap:round;stroke-linejoin:round;stroke-opacity:1"
     id="g1067"
     transform="translate(-45283.006,-31741.785)">
    <circle
       cx="51730"
       cy="41079.898"
       r="68.897598"
       id="circle1065" />
  </g>
  <g
     style="fill:#FFFFFF; fill-opacity:1.0;  stroke:#FFFFFF; stroke-width:39.3701; stroke-opacity:1;  stroke-linecap:round; stroke-linejoin:round;"
     id="g1069" />
  <g
     style="fill:#ffffff;fill-opacity:1;stroke:#ffffff;stroke-width:0;stroke-linecap:round;stroke-linejoin:round;stroke-opacity:1"
     id="g1073"
     transform="translate(-45283.006,-31741.785)">
    <circle
       cx="56730"
       cy="42400"
       r="68.897598"
       id="circle1071" />
  </g>
  <g
     style="fill:#FFFFFF; fill-opacity:1.0;  stroke:#FFFFFF; stroke-width:39.3701; stroke-opacity:1;  stroke-linecap:round; stroke-linejoin:round;"
     id="g1075" />
  <g
     style="fill:#ffffff;fill-opacity:1;stroke:#ffffff;stroke-width:0;stroke-linecap:round;stroke-linejoin:round;stroke-opacity:1"
     id="g1079"
     transform="translate(-45283.006,-31741.785)">
    <circle
       cx="55730"
       cy="42400"
       r="68.897598"
       id="circle1077" />
  </g>
  <g
     style="fill:#FFFFFF; fill-opacity:1.0;  stroke:#FFFFFF; stroke-width:39.3701; stroke-opacity:1;  stroke-linecap:round; stroke-linejoin:round;"
     id="g1081" />
  <g
     style="fill:#000000; fill-opacity:1.0;  stroke:#000000; stroke-width:39.3701; stroke-opacity:1;  stroke-linecap:round; stroke-linejoin:round;"
     id="g1083" />
</svg>
