M48
; DRILL file {KiCad (6.0.2)} date Tue Feb 15 11:15:25 2022
; FORMAT={-:-/ absolute / metric / decimal}
; #@! TF.CreationDate,2022-02-15T11:15:25+01:00
; #@! TF.GenerationSoftware,Kicad,Pcbnew,(6.0.2)
; #@! TF.FileFunction,MixedPlating,1,2
FMAT,2
METRIC
; #@! TA.AperFunction,Plated,PTH,ComponentDrill
T1C0.760
; #@! TA.AperFunction,Plated,PTH,ViaDrill
T2C0.800
; #@! TA.AperFunction,Plated,PTH,ComponentDrill
T3C0.800
; #@! TA.AperFunction,Plated,PTH,ComponentDrill
T4C0.900
; #@! TA.AperFunction,Plated,PTH,ComponentDrill
T5C1.000
; #@! TA.AperFunction,Plated,PTH,ComponentDrill
T6C1.100
; #@! TA.AperFunction,Plated,PTH,ComponentDrill
T7C1.110
; #@! TA.AperFunction,Plated,PTH,ViaDrill
T8C1.200
; #@! TA.AperFunction,Plated,PTH,ComponentDrill
T9C1.300
; #@! TA.AperFunction,Plated,PTH,ViaDrill
T10C1.400
; #@! TA.AperFunction,Plated,PTH,ComponentDrill
T11C1.500
; #@! TA.AperFunction,Plated,PTH,ViaDrill
T12C1.700
; #@! TA.AperFunction,Plated,PTH,ComponentDrill
T13C1.800
; #@! TA.AperFunction,Plated,PTH,ComponentDrill
T14C2.500
; #@! TA.AperFunction,NonPlated,NPTH,ComponentDrill
T15C1.100
; #@! TA.AperFunction,NonPlated,NPTH,ComponentDrill
T16C2.850
; #@! TA.AperFunction,NonPlated,NPTH,ComponentDrill
T17C4.000
%
G90
G05
T1
X88.76Y-30.19
X88.76Y-37.81
T2
X60.452Y-42.164
X74.676Y-45.212
T3
X60.198Y-103.632
X60.198Y-129.032
X62.738Y-103.632
X62.738Y-129.032
X65.278Y-103.632
X65.278Y-129.032
X67.818Y-103.632
X67.818Y-129.032
X70.358Y-103.632
X70.358Y-129.032
X72.898Y-103.632
X72.898Y-129.032
X75.438Y-103.632
X75.438Y-129.032
X77.978Y-103.632
X77.978Y-129.032
X80.518Y-103.632
X80.518Y-129.032
X83.058Y-103.632
X83.058Y-129.032
X83.246Y-94.968
X85.598Y-103.632
X85.598Y-129.032
X85.786Y-94.968
X88.138Y-103.632
X88.138Y-129.032
X88.326Y-94.968
X90.678Y-103.632
X90.678Y-129.032
X90.867Y-94.968
X93.218Y-103.632
X93.218Y-129.032
X95.758Y-103.632
X95.758Y-129.032
X98.298Y-103.632
X98.298Y-129.032
X100.838Y-103.632
X100.838Y-129.032
X103.378Y-103.632
X103.378Y-129.032
X105.918Y-103.632
X105.918Y-129.032
T5
X64.643Y-23.876
X64.643Y-26.416
X75.438Y-100.584
X75.438Y-132.08
X77.978Y-132.08
X82.804Y-132.08
X83.297Y-100.559
X85.344Y-132.08
X85.837Y-100.559
X88.377Y-100.559
X90.576Y-42.164
X90.576Y-54.164
X104.922Y-58.445
X107.462Y-58.445
T6
X94.587Y-24.409
X94.587Y-57.866
X97.126Y-24.409
X97.126Y-57.866
X99.666Y-24.409
X99.666Y-57.866
T7
X37.592Y-109.982
X37.592Y-112.522
X37.592Y-115.062
X37.592Y-117.602
X37.592Y-120.142
X37.592Y-122.682
X53.594Y-114.427
X53.594Y-118.237
T8
X113.792Y-82.296
T9
X24.048Y-43.815
X24.048Y-48.895
X24.181Y-107.183
X24.181Y-112.263
X24.308Y-91.181
X24.308Y-96.261
X24.313Y-79.615
X24.313Y-84.695
X68.001Y-68.947
X68.001Y-74.027
X81.581Y-36.017
X81.581Y-41.097
X81.683Y-52.781
X81.683Y-57.861
X88.626Y-48.214
X98.919Y-30.19
X102.776Y-42.164
X102.826Y-54.214
X106.539Y-30.19
X106.883Y-77.871
X106.883Y-82.951
X114.602Y-28.915
X114.602Y-33.995
X114.602Y-52.278
X114.602Y-57.358
X115.212Y-40.589
X115.212Y-45.669
T10
X61.397Y-79.107
T11
X40.132Y-22.58
X40.132Y-38.38
T12
X107.472Y-67.848
T13
X34.474Y-60.668
X34.474Y-74.168
T14
X37.084Y-106.172
X37.084Y-126.492
X54.356Y-106.172
X54.356Y-126.492
T15
X117.306Y-71.248
X117.306Y-75.848
X117.306Y-85.98
X117.306Y-90.58
T16
X22.733Y-138.557
X22.733Y-175.387
X59.563Y-138.557
X59.563Y-175.387
X78.105Y-138.557
X78.105Y-175.387
X114.935Y-138.557
X114.935Y-175.387
T17
X77.47Y-64.389
X77.496Y-94.968
X98.044Y-64.389
X98.096Y-94.968
T4
G00X116.506Y-67.848
M15
G01X118.106Y-67.848
M16
G05
G00X116.506Y-79.248
M15
G01X118.106Y-79.248
M16
G05
G00X116.506Y-82.58
M15
G01X118.106Y-82.58
M16
G05
G00X116.506Y-93.98
M15
G01X118.106Y-93.98
M16
G05
T0
M30
